<svg xmlns="http://www.w3.org/2000/svg" xmlns:v="https://svgstorm.com"
viewBox = "0 0 500 172"
width="500"
height="172">
<g fill="None" fill-opacity="0.0" stroke="#000000" stroke-opacity="0.00" stroke-width="0.3"><path d="
M 0.00 172.00 
L 500.00 172.00
L 500.00 0.00
L 0.00 0.00
L 0.00 172.00
M 131.00 4.00 
C 135.11 4.67 149.24 3.14 151.00 7.00
C 151.09 7.19 152.00 7.00 152.00 7.00
C 154.00 8.94 153.46 16.02 152.00 18.00
C 152.00 18.50 152.00 19.00 152.00 19.00
C 152.25 21.23 151.15 20.16 150.00 21.00
C 145.32 24.41 140.69 22.09 135.00 22.00
C 130.31 22.67 127.06 21.60 128.00 28.00
C 128.76 31.27 136.47 36.92 139.00 39.00
C 142.65 41.35 148.11 44.53 151.25 47.75 C 154.39 50.98 160.76 53.50 163.25 56.75 C 165.73 60.01 175.07 62.43 175.00 67.00
C 174.96 69.40 173.84 69.37 172.00 70.00
C 164.83 72.47 164.00 70.97 164.00 80.00
C 164.00 105.93 164.86 132.85 164.00 158.00
C 164.12 160.11 166.28 162.74 164.00 165.00
C 159.21 169.74 147.01 163.27 142.00 166.00
C 142.10 156.00 141.72 142.49 142.00 133.00
C 139.95 125.08 136.35 118.43 128.00 116.00
C 125.82 115.65 122.16 115.56 120.00 116.00
C 103.36 121.77 106.72 145.45 107.00 159.00
C 107.06 161.90 108.36 164.60 104.92 165.92 C 101.48 167.25 83.29 165.63 86.00 163.00
C 84.66 148.24 87.68 133.17 86.00 119.00 C 84.32 104.83 87.82 88.37 85.00 75.00
C 84.45 72.39 85.32 71.65 83.00 70.00
C 81.36 69.20 71.52 71.37 75.00 67.00
C 75.24 66.69 75.00 66.00 75.00 66.00
C 76.96 62.00 80.98 61.16 84.00 59.00
C 94.63 48.68 112.14 41.56 121.00 30.00
C 126.43 19.72 114.23 1.28 131.00 4.00
M 52.00 75.00 
C 55.91 75.01 60.88 75.91 64.00 76.00
C 68.77 75.68 79.34 72.09 81.00 79.00
C 81.42 80.76 81.00 83.18 81.00 85.00
C 81.00 91.79 80.18 98.90 81.00 105.00
C 72.96 104.96 63.79 106.73 56.00 106.00 C 48.21 105.27 35.10 107.61 32.00 101.00
C 31.78 97.92 34.85 96.10 36.00 94.00
C 38.98 86.50 43.56 74.98 52.00 75.00
M 201.00 76.00 
C 205.57 77.39 206.13 78.71 208.00 83.00
C 209.03 84.91 210.83 86.96 212.00 89.00
C 214.85 93.96 222.84 104.24 213.00 106.00
C 210.52 106.45 207.53 106.00 205.00 106.00
C 199.79 106.00 191.94 106.69 187.00 106.00 C 182.06 105.31 173.30 108.30 170.00 105.00
C 167.46 102.46 169.25 94.63 169.00 91.00
C 168.73 87.05 166.50 77.60 171.70 75.70 C 176.90 73.81 185.27 75.00 191.00 75.00
C 194.64 75.00 198.03 75.10 201.00 76.00
M 279.00 103.00 
C 279.31 105.41 279.31 107.65 279.00 110.00
C 278.98 114.68 277.04 120.33 272.75 123.75 C 268.47 127.17 261.96 131.88 256.00 130.00 C 250.04 128.12 237.95 133.46 233.00 130.00
C 229.65 127.66 232.88 119.23 232.00 115.00 C 231.12 110.77 232.46 103.76 232.00 99.00 C 231.54 94.24 232.34 87.90 232.00 83.00
C 239.67 83.00 247.33 83.00 255.00 83.00
C 266.89 83.65 278.95 90.39 279.00 103.00
M 331.00 85.00 
C 336.78 90.09 338.69 102.03 342.00 109.00
C 342.19 109.40 342.73 110.47 343.00 111.00
C 345.77 116.41 348.25 121.98 350.00 128.00
C 349.92 128.35 351.76 126.90 352.00 126.00
C 352.90 122.59 357.66 111.19 364.22 118.78 C 370.79 126.36 361.26 131.15 355.00 130.00
C 352.98 129.63 352.96 129.88 351.00 130.00
C 347.01 130.24 342.99 129.82 339.00 130.00
C 337.91 126.48 335.45 123.74 335.00 120.00
C 325.53 120.33 311.12 116.49 311.00 130.00
C 307.00 130.00 303.00 130.00 299.00 130.00
C 296.46 129.72 297.58 129.17 294.00 130.00
C 290.59 130.79 285.39 131.23 284.08 126.92 C 282.78 122.61 284.55 117.57 289.00 117.00
C 290.90 116.76 292.40 117.13 294.00 118.00
C 297.83 120.07 295.47 122.01 297.00 125.00
C 297.25 125.49 300.07 127.23 300.00 127.00
C 301.59 120.70 305.88 109.58 309.31 104.31 C 312.73 99.03 314.39 85.17 320.00 83.00
C 323.83 81.51 329.07 83.30 331.00 85.00
M 408.00 92.00 
C 402.18 94.44 390.07 88.45 385.00 92.00
C 384.73 95.98 385.36 100.03 385.00 104.00
C 392.00 104.00 399.00 104.00 406.00 104.00
C 404.57 106.94 409.62 112.31 405.00 113.00
C 398.78 113.56 392.25 113.00 386.00 113.00
C 385.50 113.00 385.00 113.00 385.00 113.00
C 384.62 117.25 386.29 129.07 384.00 130.00
C 382.83 130.47 374.98 130.69 374.00 130.00
C 371.22 128.06 373.00 115.48 373.00 112.00
C 373.00 103.81 370.71 94.48 373.00 87.00
C 373.37 85.78 372.71 84.25 373.00 83.00
C 385.00 83.00 397.00 83.00 409.00 83.00
C 407.73 85.87 411.32 91.65 408.00 92.00
M 469.00 85.00 
C 469.25 85.25 469.00 86.00 469.00 86.00
C 471.23 88.86 469.78 91.56 468.00 92.00
C 462.75 93.31 446.67 88.61 444.00 94.00
C 443.67 94.79 446.32 100.23 445.00 102.00
C 449.53 105.17 460.14 99.26 465.00 102.00
C 467.18 103.23 466.66 108.74 467.00 111.00
C 459.73 110.72 451.57 111.40 445.00 111.00
C 444.41 112.14 444.20 112.70 444.00 114.00
C 443.97 115.59 445.44 118.58 445.00 121.00
C 452.89 121.00 461.15 120.29 469.00 121.00
C 470.08 122.04 471.01 128.45 470.00 130.00
C 469.19 131.25 456.16 130.32 453.00 130.00 C 449.84 129.68 436.70 131.96 434.00 130.00
C 432.32 128.78 433.16 125.95 433.00 124.00
C 432.08 112.59 431.19 100.38 433.00 89.00
C 433.31 87.05 432.77 84.96 433.00 83.00
C 444.52 84.31 459.91 80.37 469.00 85.00
M 81.00 158.00 
C 80.80 167.82 75.73 166.00 67.00 166.00
C 60.85 166.00 48.87 168.08 44.00 165.00
C 42.34 163.95 42.64 163.70 42.00 162.00
C 39.43 155.21 40.75 141.46 41.00 134.00 C 41.25 126.54 37.04 110.54 46.00 110.00 C 54.97 109.46 65.86 110.00 75.00 110.00
C 75.51 110.00 78.74 109.66 79.00 110.00
C 81.82 109.41 81.04 120.53 81.00 124.00 C 80.96 127.47 81.05 136.48 81.00 141.00 C 80.95 145.52 81.10 153.19 81.00 158.00
M 208.00 113.00 
C 208.20 114.16 208.12 115.82 208.00 117.00
C 208.54 125.21 208.34 137.46 208.00 146.00
C 207.80 151.04 209.19 155.50 208.00 160.00
C 207.04 163.62 206.06 165.27 202.00 166.00
C 199.21 166.50 195.85 166.00 193.00 166.00
C 186.10 166.00 178.87 166.62 172.00 166.00
C 166.53 166.57 169.80 152.51 169.00 147.00 C 168.20 141.49 169.98 131.16 169.00 124.00 C 168.02 116.84 168.57 108.22 178.00 110.00 C 187.43 111.78 191.98 109.66 201.00 110.00
C 204.26 110.12 207.33 109.10 208.00 113.00
M 421.00 117.00 
C 429.83 118.56 425.94 134.14 417.00 131.00 C 408.05 127.85 412.75 115.54 421.00 117.00
M 137.00 130.00 
C 137.87 134.85 137.27 143.28 137.00 148.00 C 136.73 152.72 139.06 161.94 136.00 165.00
C 133.43 167.57 116.75 166.94 114.00 165.00
C 111.59 163.29 112.21 162.48 112.00 159.00
C 111.48 150.21 110.84 139.72 112.00 131.00
C 113.87 116.99 134.45 115.76 137.00 130.00 Z"/>
</g>
<g fill="None" fill-opacity="0.0" stroke="#DFFEFF" stroke-opacity="0.30" stroke-width="0.3"><path d="
M 121.00 30.00 
C 126.86 22.35 116.02 3.49 131.00 4.00
C 114.23 1.28 126.43 19.72 121.00 30.00 Z"/>
</g>
<g fill="None" fill-opacity="0.0" stroke="#F9FCFD" stroke-opacity="0.97" stroke-width="0.3"><path d="
M 121.00 30.00 
C 112.14 41.56 94.63 48.68 84.00 59.00
C 81.37 61.56 77.57 63.26 75.00 66.00
C 75.00 66.00 75.24 66.69 75.00 67.00
C 75.50 70.38 80.71 68.37 83.00 70.00
C 85.32 71.65 84.45 72.39 85.00 75.00
C 86.44 78.14 87.69 86.72 87.00 94.00 C 86.31 101.28 87.41 109.52 87.00 117.00 C 86.59 124.48 87.41 132.45 87.00 140.00 C 86.59 147.55 87.68 155.45 87.00 163.00
C 88.49 168.57 102.64 162.93 107.00 164.00
C 107.00 162.33 107.00 160.67 107.00 159.00
C 106.72 145.45 103.36 121.77 120.00 116.00
C 123.02 114.95 125.06 115.14 128.00 116.00
C 136.35 118.43 139.95 125.08 142.00 133.00
C 144.44 142.39 142.26 153.85 143.00 164.00
C 149.67 164.00 156.33 164.00 163.00 164.00
C 163.67 136.17 161.67 107.01 164.00 80.00
C 164.00 70.97 164.83 72.47 172.00 70.00
C 171.16 68.49 175.16 65.30 175.00 67.00
C 175.07 62.43 165.73 60.01 163.25 56.75 C 160.76 53.50 154.39 50.98 151.25 47.75 C 148.11 44.53 142.65 41.35 139.00 39.00
C 135.17 36.53 128.71 32.80 128.00 28.00
C 127.06 21.60 130.31 22.67 135.00 22.00
C 138.95 21.44 145.75 22.14 150.00 21.00
C 151.15 20.16 152.25 21.23 152.00 19.00
C 149.98 17.06 150.74 9.91 151.00 7.00
C 149.24 3.14 135.11 4.67 131.00 4.00
C 116.02 3.49 126.86 22.35 121.00 30.00
M 128.00 89.00 
C 125.06 90.02 122.90 90.10 120.00 89.00
C 115.87 87.44 112.97 83.70 111.00 80.00
C 108.90 76.06 109.33 75.86 111.00 72.00
C 111.17 70.98 111.67 69.02 112.00 68.00
C 112.98 64.92 114.51 64.62 116.00 64.00
C 123.18 61.00 132.33 59.77 136.75 68.25 C 141.17 76.73 136.49 86.06 128.00 89.00 Z"/>
</g>
<g fill="None" fill-opacity="0.0" stroke="#EEFEFF" stroke-opacity="0.58" stroke-width="0.3"><path d="
M 152.00 19.00 
C 152.00 19.00 152.00 18.50 152.00 18.00
C 152.00 14.38 152.33 10.60 152.00 7.00
C 152.00 7.00 151.09 7.19 151.00 7.00
C 150.74 9.91 149.98 17.06 152.00 19.00 Z"/>
</g>
<g fill="None" fill-opacity="0.0" stroke="#CEFFFF" stroke-opacity="0.02" stroke-width="0.3"><path d="
M 152.00 18.00 
C 153.46 16.02 154.00 8.94 152.00 7.00
C 152.33 10.60 152.00 14.38 152.00 18.00 Z"/>
</g>
<g fill="None" fill-opacity="0.0" stroke="#E2FEFF" stroke-opacity="0.38" stroke-width="0.3"><path d="
M 135.00 22.00 
C 140.69 22.09 145.32 24.41 150.00 21.00
C 145.75 22.14 138.95 21.44 135.00 22.00 Z"/>
</g>
<g fill="None" fill-opacity="0.0" stroke="#D8FFFF" stroke-opacity="0.15" stroke-width="0.3"><path d="
M 139.00 39.00 
C 136.47 36.92 128.76 31.27 128.00 28.00
C 128.71 32.80 135.17 36.53 139.00 39.00 Z"/>
</g>
<g fill="None" fill-opacity="0.0" stroke="#D7FFFF" stroke-opacity="0.21" stroke-width="0.3"><path d="
M 75.00 66.00 
C 77.57 63.26 81.37 61.56 84.00 59.00
C 80.98 61.16 76.96 62.00 75.00 66.00 Z"/>
</g>
<g fill="None" fill-opacity="0.0" stroke="#000000" stroke-opacity="0.00" stroke-width="0.3"><path d="
M 116.00 64.00 
C 115.46 64.39 112.23 67.55 112.00 68.00
C 111.67 69.02 111.17 70.98 111.00 72.00
C 110.65 74.11 110.52 77.92 111.00 80.00
C 112.97 83.70 115.87 87.44 120.00 89.00
C 122.00 89.46 125.99 89.41 128.00 89.00
C 136.49 86.06 141.17 76.73 136.75 68.25 C 132.33 59.77 123.18 61.00 116.00 64.00
M 132.00 69.00 
C 138.87 77.12 131.39 88.00 120.93 85.07 C 110.47 82.14 112.58 66.81 122.00 65.00
C 126.52 64.13 129.35 65.87 132.00 69.00 Z"/>
</g>
<g fill="None" fill-opacity="0.0" stroke="#DFFDFF" stroke-opacity="0.47" stroke-width="0.3"><path d="
M 112.00 68.00 
C 112.23 67.55 115.46 64.39 116.00 64.00
C 114.51 64.62 112.98 64.92 112.00 68.00 Z"/>
</g>
<g fill="None" fill-opacity="0.0" stroke="#EDF9FB" stroke-opacity="0.89" stroke-width="0.3"><path d="
M 132.00 69.00 
C 130.29 67.55 123.63 64.81 122.00 65.00
C 112.58 66.81 110.47 82.14 120.93 85.07 C 131.39 88.00 138.87 77.12 132.00 69.00 Z"/>
</g>
<g fill="None" fill-opacity="0.0" stroke="#D4FEFF" stroke-opacity="0.25" stroke-width="0.3"><path d="
M 132.00 69.00 
C 129.35 65.87 126.52 64.13 122.00 65.00
C 123.63 64.81 130.29 67.55 132.00 69.00 Z"/>
</g>
<g fill="None" fill-opacity="0.0" stroke="#D5FDFF" stroke-opacity="0.50" stroke-width="0.3"><path d="
M 172.00 70.00 
C 173.84 69.37 174.96 69.40 175.00 67.00
C 175.16 65.30 171.16 68.49 172.00 70.00 Z"/>
</g>
<g fill="None" fill-opacity="0.0" stroke="#DCFEFF" stroke-opacity="0.54" stroke-width="0.3"><path d="
M 83.00 70.00 
C 80.71 68.37 75.50 70.38 75.00 67.00
C 71.52 71.37 81.36 69.20 83.00 70.00 Z"/>
</g>
<g fill="None" fill-opacity="0.0" stroke="#ECFEFF" stroke-opacity="0.30" stroke-width="0.3"><path d="
M 111.00 80.00 
C 110.52 77.92 110.65 74.11 111.00 72.00
C 109.33 75.86 108.90 76.06 111.00 80.00 Z"/>
</g>
<g fill="None" fill-opacity="0.0" stroke="#F7FCFD" stroke-opacity="0.95" stroke-width="0.3"><path d="
M 36.00 94.00 
C 35.43 95.43 32.05 100.04 32.00 101.00
C 35.10 107.61 48.21 105.27 56.00 106.00 C 63.79 106.73 72.96 104.96 81.00 105.00
C 80.18 98.90 81.00 91.79 81.00 85.00
C 80.96 84.49 80.99 78.97 81.00 79.00
C 79.34 72.09 68.77 75.68 64.00 76.00
C 59.84 76.28 55.40 75.41 52.00 75.00
C 43.56 74.98 38.98 86.50 36.00 94.00 Z"/>
</g>
<g fill="None" fill-opacity="0.0" stroke="#E4FDFF" stroke-opacity="0.60" stroke-width="0.3"><path d="
M 85.00 75.00 
C 87.82 88.37 84.32 104.83 86.00 119.00 C 87.68 133.17 84.66 148.24 86.00 163.00
C 86.00 163.04 87.00 163.00 87.00 163.00
C 87.68 155.45 86.59 147.55 87.00 140.00 C 87.41 132.45 86.59 124.48 87.00 117.00 C 87.41 109.52 86.31 101.28 87.00 94.00 C 87.69 86.72 86.44 78.14 85.00 75.00 Z"/>
</g>
<g fill="None" fill-opacity="0.0" stroke="#D6FFFF" stroke-opacity="0.13" stroke-width="0.3"><path d="
M 64.00 76.00 
C 60.88 75.91 55.91 75.01 52.00 75.00
C 55.40 75.41 59.84 76.28 64.00 76.00 Z"/>
</g>
<g fill="None" fill-opacity="0.0" stroke="#F8FCFD" stroke-opacity="0.93" stroke-width="0.3"><path d="
M 169.00 91.00 
C 169.86 95.15 172.33 100.41 170.00 105.00
C 173.30 108.30 182.06 105.31 187.00 106.00 C 191.94 106.69 199.79 106.00 205.00 106.00
C 206.83 105.82 211.53 106.12 213.00 106.00
C 222.84 104.24 214.85 93.96 212.00 89.00
C 210.32 86.69 209.20 85.74 208.00 83.00
C 206.13 78.71 205.57 77.39 201.00 76.00
C 198.05 75.50 193.38 75.23 191.00 75.00
C 185.27 75.00 176.90 73.81 171.70 75.70 C 166.50 77.60 168.73 87.05 169.00 91.00 Z"/>
</g>
<g fill="None" fill-opacity="0.0" stroke="#D1FFFF" stroke-opacity="0.42" stroke-width="0.3"><path d="
M 201.00 76.00 
C 198.03 75.10 194.64 75.00 191.00 75.00
C 193.38 75.23 198.05 75.50 201.00 76.00 Z"/>
</g>
<g fill="None" fill-opacity="0.0" stroke="#D1FFFF" stroke-opacity="0.45" stroke-width="0.3"><path d="
M 81.00 85.00 
C 81.00 83.18 81.42 80.76 81.00 79.00
C 80.99 78.97 80.96 84.49 81.00 85.00 Z"/>
</g>
<g fill="None" fill-opacity="0.0" stroke="#E1FDFE" stroke-opacity="0.57" stroke-width="0.3"><path d="
M 142.00 133.00 
C 141.72 142.49 142.10 156.00 142.00 166.00
C 147.01 163.27 159.21 169.74 164.00 165.00
C 164.80 163.76 163.95 159.53 164.00 158.00
C 164.86 132.85 164.00 105.93 164.00 80.00
C 161.67 107.01 163.67 136.17 163.00 164.00
C 156.33 164.00 149.67 164.00 143.00 164.00
C 142.26 153.85 144.44 142.39 142.00 133.00 Z"/>
</g>
<g fill="None" fill-opacity="0.0" stroke="#D3FFFF" stroke-opacity="0.13" stroke-width="0.3"><path d="
M 212.00 89.00 
C 210.83 86.96 209.03 84.91 208.00 83.00
C 209.20 85.74 210.32 86.69 212.00 89.00 Z"/>
</g>
<g fill="None" fill-opacity="0.0" stroke="#DDFFFF" stroke-opacity="0.70" stroke-width="0.3"><path d="
M 233.00 130.00 
C 230.91 116.58 235.78 110.12 233.00 96.00 C 230.22 81.88 244.17 83.46 255.00 83.00
C 247.33 83.00 239.67 83.00 232.00 83.00
C 232.34 87.90 231.54 94.24 232.00 99.00 C 232.46 103.76 231.12 110.77 232.00 115.00 C 232.88 119.23 229.65 127.66 233.00 130.00 Z"/>
</g>
<g fill="None" fill-opacity="0.0" stroke="#F9FEFD" stroke-opacity="0.95" stroke-width="0.3"><path d="
M 233.00 130.00 
C 237.95 133.46 250.04 128.12 256.00 130.00 C 261.96 131.88 268.47 127.17 272.75 123.75 C 277.04 120.33 278.98 114.68 279.00 110.00
C 279.01 107.67 279.01 105.33 279.00 103.00
C 278.95 90.39 266.89 83.65 255.00 83.00
C 244.17 83.46 230.22 81.88 233.00 96.00 C 235.78 110.12 230.91 116.58 233.00 130.00
M 256.00 93.00 
C 261.48 94.42 265.58 97.43 267.32 102.68 C 269.06 107.92 266.70 115.04 262.75 117.75 C 258.81 120.46 248.15 123.91 244.00 121.00
C 241.21 119.04 243.30 111.73 243.00 108.00 C 242.70 104.27 242.64 96.99 243.00 93.00
C 244.69 89.81 253.52 92.36 256.00 93.00 Z"/>
</g>
<g fill="None" fill-opacity="0.0" stroke="#F8FDFD" stroke-opacity="0.91" stroke-width="0.3"><path d="
M 300.00 127.00 
C 299.84 127.65 299.69 129.57 299.00 130.00
C 303.00 130.00 307.00 130.00 311.00 130.00
C 311.12 116.49 325.53 120.33 335.00 120.00
C 335.45 123.74 337.91 126.48 339.00 130.00
C 342.99 129.82 347.01 130.24 351.00 130.00
C 350.61 129.81 350.11 128.38 350.00 128.00
C 348.25 121.98 345.77 116.41 343.00 111.00
C 341.74 115.38 341.69 107.70 342.00 109.00
C 338.69 102.03 336.78 90.09 331.00 85.00
C 329.47 84.06 320.97 82.71 320.00 83.00
C 314.39 85.17 312.73 99.03 309.31 104.31 C 305.88 109.58 301.59 120.70 300.00 127.00
M 330.00 108.00 
C 330.45 109.11 332.56 110.25 332.00 112.00
C 328.48 111.08 317.74 114.09 319.00 110.00
C 318.83 105.40 323.90 100.00 325.00 96.00
C 326.31 100.10 328.24 104.01 330.00 108.00 Z"/>
</g>
<g fill="None" fill-opacity="0.0" stroke="#D8FFFF" stroke-opacity="0.59" stroke-width="0.3"><path d="
M 331.00 85.00 
C 329.07 83.30 323.83 81.51 320.00 83.00
C 320.97 82.71 329.47 84.06 331.00 85.00 Z"/>
</g>
<g fill="None" fill-opacity="0.0" stroke="#D6FDFF" stroke-opacity="0.60" stroke-width="0.3"><path d="
M 373.00 87.00 
C 373.37 86.24 374.61 85.35 374.00 84.00
C 385.33 84.00 396.67 84.00 408.00 84.00
C 408.00 86.67 408.00 89.33 408.00 92.00
C 411.32 91.65 407.73 85.87 409.00 83.00
C 397.00 83.00 385.00 83.00 373.00 83.00
C 372.71 84.25 373.37 85.78 373.00 87.00 Z"/>
</g>
<g fill="None" fill-opacity="0.0" stroke="#D7FEFF" stroke-opacity="0.63" stroke-width="0.3"><path d="
M 433.00 89.00 
C 433.36 87.77 434.75 85.87 434.00 84.00
C 445.17 84.67 457.66 82.67 468.00 85.00
C 468.32 85.24 469.00 85.00 469.00 85.00
C 459.91 80.37 444.52 84.31 433.00 83.00
C 432.77 84.96 433.31 87.05 433.00 89.00 Z"/>
</g>
<g fill="None" fill-opacity="0.0" stroke="#FBFEFD" stroke-opacity="0.98" stroke-width="0.3"><path d="
M 373.00 87.00 
C 370.71 94.48 373.00 103.81 373.00 112.00
C 373.51 117.26 374.70 124.03 374.00 130.00
C 374.98 130.69 382.83 130.47 384.00 130.00
C 383.03 127.03 383.04 114.90 385.00 113.00
C 385.00 113.00 385.50 113.00 386.00 113.00
C 389.46 110.44 400.41 111.59 405.00 112.00
C 405.22 109.69 404.84 107.32 405.00 105.00
C 398.17 104.34 390.01 106.32 384.00 104.00
C 383.76 101.40 382.91 93.46 385.00 92.00
C 390.07 88.45 402.18 94.44 408.00 92.00
C 408.00 89.33 408.00 86.67 408.00 84.00
C 396.67 84.00 385.33 84.00 374.00 84.00
C 374.61 85.35 373.37 86.24 373.00 87.00 Z"/>
</g>
<g fill="None" fill-opacity="0.0" stroke="#F9FDFD" stroke-opacity="0.96" stroke-width="0.3"><path d="
M 433.00 89.00 
C 431.19 100.38 432.08 112.59 433.00 124.00
C 433.25 125.42 434.86 127.91 434.00 130.00
C 436.70 131.96 449.84 129.68 453.00 130.00 C 456.16 130.32 469.19 131.25 470.00 130.00
C 468.31 128.23 469.00 124.52 469.00 122.00
C 464.20 122.43 447.07 124.19 444.00 121.00
C 443.73 118.96 443.68 116.03 444.00 114.00
C 444.20 112.70 444.41 112.14 445.00 111.00
C 446.56 107.98 460.08 111.18 465.00 110.00
C 465.00 107.33 465.00 104.67 465.00 102.00
C 460.14 99.26 449.53 105.17 445.00 102.00
C 443.74 101.12 443.25 95.53 444.00 94.00
C 446.67 88.61 462.75 93.31 468.00 92.00
C 468.23 89.70 467.69 87.29 468.00 85.00
C 457.66 82.67 445.17 84.67 434.00 84.00
C 434.75 85.87 433.36 87.77 433.00 89.00 Z"/>
</g>
<g fill="None" fill-opacity="0.0" stroke="#EEEFF0" stroke-opacity="0.58" stroke-width="0.3"><path d="
M 468.00 92.00 
C 469.45 90.91 469.20 87.81 469.00 86.00
C 469.00 86.00 469.25 85.25 469.00 85.00
C 469.00 85.00 468.32 85.24 468.00 85.00
C 467.69 87.29 468.23 89.70 468.00 92.00 Z"/>
</g>
<g fill="None" fill-opacity="0.0" stroke="#FFFFFF" stroke-opacity="0.01" stroke-width="0.3"><path d="
M 468.00 92.00 
C 469.78 91.56 471.23 88.86 469.00 86.00
C 469.20 87.81 469.45 90.91 468.00 92.00 Z"/>
</g>
<g fill="None" fill-opacity="0.0" stroke="#D1FFFF" stroke-opacity="0.04" stroke-width="0.3"><path d="
M 128.00 89.00 
C 125.99 89.41 122.00 89.46 120.00 89.00
C 122.90 90.10 125.06 90.02 128.00 89.00 Z"/>
</g>
<g fill="None" fill-opacity="0.0" stroke="#D9FEFF" stroke-opacity="0.43" stroke-width="0.3"><path d="
M 170.00 105.00 
C 172.33 100.41 169.86 95.15 169.00 91.00
C 169.25 94.63 167.46 102.46 170.00 105.00 Z"/>
</g>
<g fill="None" fill-opacity="0.0" stroke="#DAFEFF" stroke-opacity="0.27" stroke-width="0.3"><path d="
M 243.00 93.00 
C 243.00 92.96 244.00 93.00 244.00 93.00
C 247.88 93.00 252.16 92.49 256.00 93.00
C 253.52 92.36 244.69 89.81 243.00 93.00 Z"/>
</g>
<g fill="None" fill-opacity="0.0" stroke="#D5FFFF" stroke-opacity="0.07" stroke-width="0.3"><path d="
M 384.00 104.00 
C 384.00 104.05 385.00 104.00 385.00 104.00
C 385.36 100.03 384.73 95.98 385.00 92.00
C 382.91 93.46 383.76 101.40 384.00 104.00 Z"/>
</g>
<g fill="None" fill-opacity="0.0" stroke="#E8FFFF" stroke-opacity="0.03" stroke-width="0.3"><path d="
M 244.00 121.00 
C 243.37 111.72 244.84 102.26 244.00 93.00
C 244.00 93.00 243.00 92.96 243.00 93.00
C 242.64 96.99 242.70 104.27 243.00 108.00 C 243.30 111.73 241.21 119.04 244.00 121.00 Z"/>
</g>
<g fill="None" fill-opacity="0.0" stroke="#000000" stroke-opacity="0.00" stroke-width="0.3"><path d="
M 244.00 121.00 
C 248.15 123.91 258.81 120.46 262.75 117.75 C 266.70 115.04 269.06 107.92 267.32 102.68 C 265.58 97.43 261.48 94.42 256.00 93.00
C 252.16 92.49 247.88 93.00 244.00 93.00
C 244.84 102.26 243.37 111.72 244.00 121.00 Z"/>
</g>
<g fill="None" fill-opacity="0.0" stroke="#EBFFFF" stroke-opacity="0.25" stroke-width="0.3"><path d="
M 32.00 101.00 
C 32.05 100.04 35.43 95.43 36.00 94.00
C 34.85 96.10 31.78 97.92 32.00 101.00 Z"/>
</g>
<g fill="None" fill-opacity="0.0" stroke="#CDFFFF" stroke-opacity="0.02" stroke-width="0.3"><path d="
M 445.00 102.00 
C 446.32 100.23 443.67 94.79 444.00 94.00
C 443.25 95.53 443.74 101.12 445.00 102.00 Z"/>
</g>
<g fill="None" fill-opacity="0.0" stroke="#000000" stroke-opacity="0.00" stroke-width="0.3"><path d="
M 319.00 110.00 
C 321.76 112.16 326.49 110.45 330.00 111.00
C 330.00 110.00 330.00 109.00 330.00 108.00
C 328.24 104.01 326.31 100.10 325.00 96.00
C 323.90 100.00 318.83 105.40 319.00 110.00 Z"/>
</g>
<g fill="None" fill-opacity="0.0" stroke="#E1FEFF" stroke-opacity="0.47" stroke-width="0.3"><path d="
M 445.00 111.00 
C 451.57 111.40 459.73 110.72 467.00 111.00
C 466.66 108.74 467.18 103.23 465.00 102.00
C 465.00 104.67 465.00 107.33 465.00 110.00
C 460.08 111.18 446.56 107.98 445.00 111.00 Z"/>
</g>
<g fill="None" fill-opacity="0.0" stroke="#DEFFFF" stroke-opacity="0.05" stroke-width="0.3"><path d="
M 279.00 110.00 
C 279.31 107.65 279.31 105.41 279.00 103.00
C 279.01 105.33 279.01 107.67 279.00 110.00 Z"/>
</g>
<g fill="None" fill-opacity="0.0" stroke="#E5FEFF" stroke-opacity="0.56" stroke-width="0.3"><path d="
M 405.00 112.00 
C 404.95 112.50 405.00 113.00 405.00 113.00
C 409.62 112.31 404.57 106.94 406.00 104.00
C 399.00 104.00 392.00 104.00 385.00 104.00
C 385.00 104.00 384.00 104.05 384.00 104.00
C 390.01 106.32 398.17 104.34 405.00 105.00
C 404.84 107.32 405.22 109.69 405.00 112.00 Z"/>
</g>
<g fill="None" fill-opacity="0.0" stroke="#D5FFFF" stroke-opacity="0.02" stroke-width="0.3"><path d="
M 205.00 106.00 
C 207.53 106.00 210.52 106.45 213.00 106.00
C 211.53 106.12 206.83 105.82 205.00 106.00 Z"/>
</g>
<g fill="None" fill-opacity="0.0" stroke="#E7FEFD" stroke-opacity="0.17" stroke-width="0.3"><path d="
M 319.00 110.00 
C 317.74 114.09 328.48 111.08 332.00 112.00
C 332.56 110.25 330.45 109.11 330.00 108.00
C 330.00 109.00 330.00 110.00 330.00 111.00
C 326.49 110.45 321.76 112.16 319.00 110.00 Z"/>
</g>
<g fill="None" fill-opacity="0.0" stroke="#EEFFFF" stroke-opacity="0.62" stroke-width="0.3"><path d="
M 343.00 111.00 
C 342.73 110.47 342.19 109.40 342.00 109.00
C 341.69 107.70 341.74 115.38 343.00 111.00 Z"/>
</g>
<g fill="None" fill-opacity="0.0" stroke="#D6FEFF" stroke-opacity="0.33" stroke-width="0.3"><path d="
M 42.00 162.00 
C 38.99 148.13 44.13 134.24 42.00 120.00 C 39.87 105.76 65.36 111.31 75.00 110.00
C 65.86 110.00 54.97 109.46 46.00 110.00 C 37.04 110.54 41.25 126.54 41.00 134.00 C 40.75 141.46 39.43 155.21 42.00 162.00 Z"/>
</g>
<g fill="None" fill-opacity="0.0" stroke="#FAFEFD" stroke-opacity="0.98" stroke-width="0.3"><path d="
M 42.00 162.00 
C 42.64 163.70 42.34 163.95 44.00 165.00
C 46.40 165.99 51.36 165.00 54.00 165.00
C 61.57 164.27 70.71 163.47 79.00 164.00
C 79.00 146.67 79.00 129.33 79.00 112.00
C 79.00 111.50 79.24 110.32 79.00 110.00
C 78.74 109.66 75.51 110.00 75.00 110.00
C 65.36 111.31 39.87 105.76 42.00 120.00 C 44.13 134.24 38.99 148.13 42.00 162.00
M 64.00 129.00 
C 67.12 132.03 66.85 140.37 65.00 144.00
C 56.70 160.25 52.99 118.32 64.00 129.00 Z"/>
</g>
<g fill="None" fill-opacity="0.0" stroke="#D0FEFF" stroke-opacity="0.31" stroke-width="0.3"><path d="
M 79.00 112.00 
C 81.67 118.28 79.89 127.68 80.00 135.00 C 80.11 142.32 80.49 151.35 81.00 158.00
C 81.10 153.19 80.95 145.52 81.00 141.00 C 81.05 136.48 80.96 127.47 81.00 124.00 C 81.04 120.53 81.82 109.41 79.00 110.00
C 79.24 110.32 79.00 111.50 79.00 112.00 Z"/>
</g>
<g fill="None" fill-opacity="0.0" stroke="#D7FEFF" stroke-opacity="0.32" stroke-width="0.3"><path d="
M 172.00 166.00 
C 171.96 166.00 172.00 165.00 172.00 165.00
C 167.32 162.87 170.78 154.01 170.00 149.00 C 169.22 143.99 170.41 135.64 170.00 130.00 C 169.59 124.36 170.30 116.81 170.00 111.00
C 180.00 111.00 190.00 111.00 200.00 111.00
C 200.35 110.95 200.76 110.07 201.00 110.00
C 191.98 109.66 187.43 111.78 178.00 110.00 C 168.57 108.22 168.02 116.84 169.00 124.00 C 169.98 131.16 168.20 141.49 169.00 147.00 C 169.80 152.51 166.53 166.57 172.00 166.00 Z"/>
</g>
<g fill="None" fill-opacity="0.0" stroke="#E4FBFE" stroke-opacity="0.65" stroke-width="0.3"><path d="
M 200.00 111.00 
C 200.70 111.07 207.49 111.98 208.00 113.00
C 207.33 109.10 204.26 110.12 201.00 110.00
C 200.76 110.07 200.35 110.95 200.00 111.00 Z"/>
</g>
<g fill="None" fill-opacity="0.0" stroke="#F9FCFD" stroke-opacity="0.98" stroke-width="0.3"><path d="
M 172.00 165.00 
C 178.87 164.38 186.10 165.00 193.00 165.00
C 195.57 165.00 200.34 166.14 202.00 166.00
C 206.06 165.27 207.04 163.62 208.00 160.00
C 208.25 156.58 207.00 150.25 207.00 146.00
C 207.00 136.24 207.08 126.40 208.00 117.00
C 208.12 115.82 208.20 114.16 208.00 113.00
C 207.49 111.98 200.70 111.07 200.00 111.00
C 190.00 111.00 180.00 111.00 170.00 111.00
C 170.30 116.81 169.59 124.36 170.00 130.00 C 170.41 135.64 169.22 143.99 170.00 149.00 C 170.78 154.01 167.32 162.87 172.00 165.00
M 192.00 132.00 
C 191.63 131.31 192.77 137.65 192.00 142.00
C 191.93 143.99 192.04 144.58 191.00 146.00
C 190.68 146.45 189.45 147.75 189.00 148.00
C 179.70 153.23 185.37 130.04 184.00 133.00
C 184.16 129.72 186.45 125.36 191.00 127.00
C 191.39 128.57 190.06 131.22 192.00 132.00 Z"/>
</g>
<g fill="None" fill-opacity="0.0" stroke="#E9FEFE" stroke-opacity="0.69" stroke-width="0.3"><path d="
M 54.00 165.00 
C 58.41 165.00 63.34 165.65 67.00 166.00
C 75.73 166.00 80.80 167.82 81.00 158.00
C 80.49 151.35 80.11 142.32 80.00 135.00 C 79.89 127.68 81.67 118.28 79.00 112.00
C 79.00 129.33 79.00 146.67 79.00 164.00
C 70.71 163.47 61.57 164.27 54.00 165.00 Z"/>
</g>
<g fill="None" fill-opacity="0.0" stroke="#CEFEFF" stroke-opacity="0.75" stroke-width="0.3"><path d="
M 374.00 130.00 
C 374.70 124.03 373.51 117.26 373.00 112.00
C 373.00 115.48 371.22 128.06 374.00 130.00 Z"/>
</g>
<g fill="None" fill-opacity="0.0" stroke="#D8FFFF" stroke-opacity="1.00" stroke-width="0.3"><path d="
M 386.00 113.00 
C 392.25 113.00 398.78 113.56 405.00 113.00
C 405.00 113.00 404.95 112.50 405.00 112.00
C 400.41 111.59 389.46 110.44 386.00 113.00 Z"/>
</g>
<g fill="None" fill-opacity="0.0" stroke="#D2FFFF" stroke-opacity="0.05" stroke-width="0.3"><path d="
M 384.00 130.00 
C 386.29 129.07 384.62 117.25 385.00 113.00
C 383.04 114.90 383.03 127.03 384.00 130.00 Z"/>
</g>
<g fill="None" fill-opacity="0.0" stroke="#CAFFFF" stroke-opacity="0.02" stroke-width="0.3"><path d="
M 444.00 121.00 
C 444.01 121.07 445.00 121.00 445.00 121.00
C 445.44 118.58 443.97 115.59 444.00 114.00
C 443.68 116.03 443.73 118.96 444.00 121.00 Z"/>
</g>
<g fill="None" fill-opacity="0.0" stroke="#DFFFFF" stroke-opacity="0.12" stroke-width="0.3"><path d="
M 120.00 116.00 
C 122.16 115.56 125.82 115.65 128.00 116.00
C 125.06 115.14 123.02 114.95 120.00 116.00 Z"/>
</g>
<g fill="None" fill-opacity="0.0" stroke="#DFFEFF" stroke-opacity="0.48" stroke-width="0.3"><path d="
M 207.00 146.00 
C 207.00 145.96 208.00 146.00 208.00 146.00
C 208.34 137.46 208.54 125.21 208.00 117.00
C 207.08 126.40 207.00 136.24 207.00 146.00 Z"/>
</g>
<g fill="None" fill-opacity="0.0" stroke="#F4FEFD" stroke-opacity="0.89" stroke-width="0.3"><path d="
M 294.00 130.00 
C 294.98 129.34 296.88 125.74 297.00 125.00
C 295.47 122.01 297.83 120.07 294.00 118.00
C 295.69 118.79 287.65 117.09 289.00 117.00
C 284.55 117.57 282.78 122.61 284.08 126.92 C 285.39 131.23 290.59 130.79 294.00 130.00 Z"/>
</g>
<g fill="None" fill-opacity="0.0" stroke="#D6FFFF" stroke-opacity="0.52" stroke-width="0.3"><path d="
M 294.00 118.00 
C 292.40 117.13 290.90 116.76 289.00 117.00
C 287.65 117.09 295.69 118.79 294.00 118.00 Z"/>
</g>
<g fill="None" fill-opacity="0.0" stroke="#F4FDFD" stroke-opacity="0.85" stroke-width="0.3"><path d="
M 352.00 126.00 
C 352.22 126.56 354.40 129.61 355.00 130.00
C 361.26 131.15 370.79 126.36 364.22 118.78 C 357.66 111.19 352.90 122.59 352.00 126.00 Z"/>
</g>
<g fill="None" fill-opacity="0.0" stroke="#F3FEFD" stroke-opacity="0.84" stroke-width="0.3"><path d="
M 421.00 117.00 
C 412.75 115.54 408.05 127.85 417.00 131.00 C 425.94 134.14 429.83 118.56 421.00 117.00 Z"/>
</g>
<g fill="None" fill-opacity="0.0" stroke="#F8FCFD" stroke-opacity="0.97" stroke-width="0.3"><path d="
M 112.00 131.00 
C 111.70 139.19 112.31 150.76 112.00 159.00
C 112.21 162.48 111.59 163.29 114.00 165.00
C 119.94 167.87 129.71 162.84 136.00 165.00
C 134.26 153.70 137.87 140.41 137.00 130.00
C 134.45 115.76 113.87 116.99 112.00 131.00 Z"/>
</g>
<g fill="None" fill-opacity="0.0" stroke="#D5FEFF" stroke-opacity="0.66" stroke-width="0.3"><path d="
M 469.00 122.00 
C 469.00 121.50 469.00 121.00 469.00 121.00
C 461.15 120.29 452.89 121.00 445.00 121.00
C 445.00 121.00 444.01 121.07 444.00 121.00
C 447.07 124.19 464.20 122.43 469.00 122.00 Z"/>
</g>
<g fill="None" fill-opacity="0.0" stroke="#D9FDFF" stroke-opacity="0.37" stroke-width="0.3"><path d="
M 469.00 122.00 
C 469.00 124.52 468.31 128.23 470.00 130.00
C 471.01 128.45 470.08 122.04 469.00 121.00
C 469.00 121.00 469.00 121.50 469.00 122.00 Z"/>
</g>
<g fill="None" fill-opacity="0.0" stroke="#EAF5F7" stroke-opacity="0.77" stroke-width="0.3"><path d="
M 434.00 130.00 
C 434.86 127.91 433.25 125.42 433.00 124.00
C 433.16 125.95 432.32 128.78 434.00 130.00 Z"/>
</g>
<g fill="None" fill-opacity="0.0" stroke="#F4FEFE" stroke-opacity="0.20" stroke-width="0.3"><path d="
M 294.00 130.00 
C 297.58 129.17 296.46 129.72 299.00 130.00
C 299.69 129.57 299.84 127.65 300.00 127.00
C 300.07 127.23 297.25 125.49 297.00 125.00
C 296.88 125.74 294.98 129.34 294.00 130.00 Z"/>
</g>
<g fill="None" fill-opacity="0.0" stroke="#DDFFFF" stroke-opacity="0.05" stroke-width="0.3"><path d="
M 350.00 128.00 
C 350.11 128.38 350.61 129.81 351.00 130.00
C 352.96 129.88 352.98 129.63 355.00 130.00
C 354.40 129.61 352.22 126.56 352.00 126.00
C 351.76 126.90 349.92 128.35 350.00 128.00 Z"/>
</g>
<g fill="None" fill-opacity="0.0" stroke="#000000" stroke-opacity="0.00" stroke-width="0.3"><path d="
M 65.00 144.00 
C 65.93 141.22 65.56 131.37 64.00 129.00
C 52.99 118.32 56.70 160.25 65.00 144.00 Z"/>
</g>
<g fill="None" fill-opacity="0.0" stroke="#000000" stroke-opacity="0.00" stroke-width="0.3"><path d="
M 184.00 133.00 
C 183.87 135.53 183.86 148.97 189.00 148.00
C 189.45 147.75 190.68 146.45 191.00 146.00
C 191.58 144.65 191.90 139.05 192.00 138.00
C 192.00 136.07 192.28 133.90 192.00 132.00
C 190.06 131.22 191.39 128.57 191.00 127.00
C 186.45 125.36 184.16 129.72 184.00 133.00 Z"/>
</g>
<g fill="None" fill-opacity="0.0" stroke="#DDFEFE" stroke-opacity="0.49" stroke-width="0.3"><path d="
M 65.00 144.00 
C 66.85 140.37 67.12 132.03 64.00 129.00
C 65.56 131.37 65.93 141.22 65.00 144.00 Z"/>
</g>
<g fill="None" fill-opacity="0.0" stroke="#C9FEFF" stroke-opacity="0.51" stroke-width="0.3"><path d="
M 136.00 165.00 
C 139.06 161.94 136.73 152.72 137.00 148.00 C 137.27 143.28 137.87 134.85 137.00 130.00
C 137.87 140.41 134.26 153.70 136.00 165.00 Z"/>
</g>
<g fill="None" fill-opacity="0.0" stroke="#EBFDFF" stroke-opacity="0.71" stroke-width="0.3"><path d="
M 192.00 132.00 
C 192.28 133.90 192.00 136.07 192.00 138.00
C 192.00 139.33 192.05 140.67 192.00 142.00
C 192.77 137.65 191.63 131.31 192.00 132.00 Z"/>
</g>
<g fill="None" fill-opacity="0.0" stroke="#E3FFFF" stroke-opacity="0.31" stroke-width="0.3"><path d="
M 112.00 159.00 
C 112.31 150.76 111.70 139.19 112.00 131.00
C 110.84 139.72 111.48 150.21 112.00 159.00 Z"/>
</g>
<g fill="None" fill-opacity="0.0" stroke="#E6FEFF" stroke-opacity="0.39" stroke-width="0.3"><path d="
M 189.00 148.00 
C 183.86 148.97 183.87 135.53 184.00 133.00
C 185.37 130.04 179.70 153.23 189.00 148.00 Z"/>
</g>
<g fill="None" fill-opacity="0.0" stroke="#E1FFFF" stroke-opacity="0.03" stroke-width="0.3"><path d="
M 191.00 146.00 
C 192.04 144.58 191.93 143.99 192.00 142.00
C 192.05 140.67 192.00 139.33 192.00 138.00
C 191.90 139.05 191.58 144.65 191.00 146.00 Z"/>
</g>
<g fill="None" fill-opacity="0.0" stroke="#EDFEFF" stroke-opacity="0.35" stroke-width="0.3"><path d="
M 208.00 160.00 
C 209.19 155.50 207.80 151.04 208.00 146.00
C 208.00 146.00 207.00 145.96 207.00 146.00
C 207.00 150.25 208.25 156.58 208.00 160.00 Z"/>
</g>
<g fill="None" fill-opacity="0.0" stroke="#CBFFFF" stroke-opacity="0.09" stroke-width="0.3"><path d="
M 164.00 165.00 
C 166.28 162.74 164.12 160.11 164.00 158.00
C 163.95 159.53 164.80 163.76 164.00 165.00 Z"/>
</g>
<g fill="None" fill-opacity="0.0" stroke="#DCFEFE" stroke-opacity="0.25" stroke-width="0.3"><path d="
M 87.00 163.00 
C 87.00 163.00 86.00 163.04 86.00 163.00
C 83.29 165.63 101.48 167.25 104.92 165.92 C 108.36 164.60 107.06 161.90 107.00 159.00
C 107.00 160.67 107.00 162.33 107.00 164.00
C 102.64 162.93 88.49 168.57 87.00 163.00 Z"/>
</g>
<g fill="None" fill-opacity="0.0" stroke="#F0FFFF" stroke-opacity="0.04" stroke-width="0.3"><path d="
M 67.00 166.00 
C 63.34 165.65 58.41 165.00 54.00 165.00
C 51.36 165.00 46.40 165.99 44.00 165.00
C 48.87 168.08 60.85 166.00 67.00 166.00 Z"/>
</g>
<g fill="None" fill-opacity="0.0" stroke="#D7FFFF" stroke-opacity="0.08" stroke-width="0.3"><path d="
M 136.00 165.00 
C 129.71 162.84 119.94 167.87 114.00 165.00
C 116.75 166.94 133.43 167.57 136.00 165.00 Z"/>
</g>
<g fill="None" fill-opacity="0.0" stroke="#DEFFFF" stroke-opacity="0.13" stroke-width="0.3"><path d="
M 172.00 166.00 
C 178.87 166.62 186.10 166.00 193.00 166.00
C 192.96 166.00 193.00 165.00 193.00 165.00
C 186.10 165.00 178.87 164.38 172.00 165.00
C 172.00 165.00 171.96 166.00 172.00 166.00 Z"/>
</g>
<g fill="None" fill-opacity="0.0" stroke="#E5FFFF" stroke-opacity="0.32" stroke-width="0.3"><path d="
M 193.00 166.00 
C 195.85 166.00 199.21 166.50 202.00 166.00
C 200.34 166.14 195.57 165.00 193.00 165.00
C 193.00 165.00 192.96 166.00 193.00 166.00 Z"/>
</g>
<g fill="#000000" fill-opacity="0.00" stroke="None">
<path d="
M 0.00 172.00 
L 500.00 172.00
L 500.00 0.00
L 0.00 0.00
L 0.00 172.00
M 131.00 4.00 
C 135.11 4.67 149.24 3.14 151.00 7.00
C 151.09 7.19 152.00 7.00 152.00 7.00
C 154.00 8.94 153.46 16.02 152.00 18.00
C 152.00 18.50 152.00 19.00 152.00 19.00
C 152.25 21.23 151.15 20.16 150.00 21.00
C 145.32 24.41 140.69 22.09 135.00 22.00
C 130.31 22.67 127.06 21.60 128.00 28.00
C 128.76 31.27 136.47 36.92 139.00 39.00
C 142.65 41.35 148.11 44.53 151.25 47.75 C 154.39 50.98 160.76 53.50 163.25 56.75 C 165.73 60.01 175.07 62.43 175.00 67.00
C 174.96 69.40 173.84 69.37 172.00 70.00
C 164.83 72.47 164.00 70.97 164.00 80.00
C 164.00 105.93 164.86 132.85 164.00 158.00
C 164.12 160.11 166.28 162.74 164.00 165.00
C 159.21 169.74 147.01 163.27 142.00 166.00
C 142.10 156.00 141.72 142.49 142.00 133.00
C 139.95 125.08 136.35 118.43 128.00 116.00
C 125.82 115.65 122.16 115.56 120.00 116.00
C 103.36 121.77 106.72 145.45 107.00 159.00
C 107.06 161.90 108.36 164.60 104.92 165.92 C 101.48 167.25 83.29 165.63 86.00 163.00
C 84.66 148.24 87.68 133.17 86.00 119.00 C 84.32 104.83 87.82 88.37 85.00 75.00
C 84.45 72.39 85.32 71.65 83.00 70.00
C 81.36 69.20 71.52 71.37 75.00 67.00
C 75.24 66.69 75.00 66.00 75.00 66.00
C 76.96 62.00 80.98 61.16 84.00 59.00
C 94.63 48.68 112.14 41.56 121.00 30.00
C 126.43 19.72 114.23 1.28 131.00 4.00
M 52.00 75.00 
C 55.91 75.01 60.88 75.91 64.00 76.00
C 68.77 75.68 79.34 72.09 81.00 79.00
C 81.42 80.76 81.00 83.18 81.00 85.00
C 81.00 91.79 80.18 98.90 81.00 105.00
C 72.96 104.96 63.79 106.73 56.00 106.00 C 48.21 105.27 35.10 107.61 32.00 101.00
C 31.78 97.92 34.85 96.10 36.00 94.00
C 38.98 86.50 43.56 74.98 52.00 75.00
M 201.00 76.00 
C 205.57 77.39 206.13 78.71 208.00 83.00
C 209.03 84.91 210.83 86.96 212.00 89.00
C 214.85 93.96 222.84 104.24 213.00 106.00
C 210.52 106.45 207.53 106.00 205.00 106.00
C 199.79 106.00 191.94 106.69 187.00 106.00 C 182.06 105.31 173.30 108.30 170.00 105.00
C 167.46 102.46 169.25 94.63 169.00 91.00
C 168.73 87.05 166.50 77.60 171.70 75.70 C 176.90 73.81 185.27 75.00 191.00 75.00
C 194.64 75.00 198.03 75.10 201.00 76.00
M 279.00 103.00 
C 279.31 105.41 279.31 107.65 279.00 110.00
C 278.98 114.68 277.04 120.33 272.75 123.75 C 268.47 127.17 261.96 131.88 256.00 130.00 C 250.04 128.12 237.95 133.46 233.00 130.00
C 229.65 127.66 232.88 119.23 232.00 115.00 C 231.12 110.77 232.46 103.76 232.00 99.00 C 231.54 94.24 232.34 87.90 232.00 83.00
C 239.67 83.00 247.33 83.00 255.00 83.00
C 266.89 83.65 278.95 90.39 279.00 103.00
M 331.00 85.00 
C 336.78 90.09 338.69 102.03 342.00 109.00
C 342.19 109.40 342.73 110.47 343.00 111.00
C 345.77 116.41 348.25 121.98 350.00 128.00
C 349.92 128.35 351.76 126.90 352.00 126.00
C 352.90 122.59 357.66 111.19 364.22 118.78 C 370.79 126.36 361.26 131.15 355.00 130.00
C 352.98 129.63 352.96 129.88 351.00 130.00
C 347.01 130.24 342.99 129.82 339.00 130.00
C 337.91 126.48 335.45 123.74 335.00 120.00
C 325.53 120.33 311.12 116.49 311.00 130.00
C 307.00 130.00 303.00 130.00 299.00 130.00
C 296.46 129.72 297.58 129.17 294.00 130.00
C 290.59 130.79 285.39 131.23 284.08 126.92 C 282.78 122.61 284.55 117.57 289.00 117.00
C 290.90 116.76 292.40 117.13 294.00 118.00
C 297.83 120.07 295.47 122.01 297.00 125.00
C 297.25 125.49 300.07 127.23 300.00 127.00
C 301.59 120.70 305.88 109.58 309.31 104.31 C 312.73 99.03 314.39 85.17 320.00 83.00
C 323.83 81.51 329.07 83.30 331.00 85.00
M 408.00 92.00 
C 402.18 94.44 390.07 88.45 385.00 92.00
C 384.73 95.98 385.36 100.03 385.00 104.00
C 392.00 104.00 399.00 104.00 406.00 104.00
C 404.57 106.94 409.62 112.31 405.00 113.00
C 398.78 113.56 392.25 113.00 386.00 113.00
C 385.50 113.00 385.00 113.00 385.00 113.00
C 384.62 117.25 386.29 129.07 384.00 130.00
C 382.83 130.47 374.98 130.69 374.00 130.00
C 371.22 128.06 373.00 115.48 373.00 112.00
C 373.00 103.81 370.71 94.48 373.00 87.00
C 373.37 85.78 372.71 84.25 373.00 83.00
C 385.00 83.00 397.00 83.00 409.00 83.00
C 407.73 85.87 411.32 91.65 408.00 92.00
M 469.00 85.00 
C 469.25 85.25 469.00 86.00 469.00 86.00
C 471.23 88.86 469.78 91.56 468.00 92.00
C 462.75 93.31 446.67 88.61 444.00 94.00
C 443.67 94.79 446.32 100.23 445.00 102.00
C 449.53 105.17 460.14 99.26 465.00 102.00
C 467.18 103.23 466.66 108.74 467.00 111.00
C 459.73 110.72 451.57 111.40 445.00 111.00
C 444.41 112.14 444.20 112.70 444.00 114.00
C 443.97 115.59 445.44 118.58 445.00 121.00
C 452.89 121.00 461.15 120.29 469.00 121.00
C 470.08 122.04 471.01 128.45 470.00 130.00
C 469.19 131.25 456.16 130.32 453.00 130.00 C 449.84 129.68 436.70 131.96 434.00 130.00
C 432.32 128.78 433.16 125.95 433.00 124.00
C 432.08 112.59 431.19 100.38 433.00 89.00
C 433.31 87.05 432.77 84.96 433.00 83.00
C 444.52 84.31 459.91 80.37 469.00 85.00
M 81.00 158.00 
C 80.80 167.82 75.73 166.00 67.00 166.00
C 60.85 166.00 48.87 168.08 44.00 165.00
C 42.34 163.95 42.64 163.70 42.00 162.00
C 39.43 155.21 40.75 141.46 41.00 134.00 C 41.25 126.54 37.04 110.54 46.00 110.00 C 54.97 109.46 65.86 110.00 75.00 110.00
C 75.51 110.00 78.74 109.66 79.00 110.00
C 81.82 109.41 81.04 120.53 81.00 124.00 C 80.96 127.47 81.05 136.48 81.00 141.00 C 80.95 145.52 81.10 153.19 81.00 158.00
M 208.00 113.00 
C 208.20 114.16 208.12 115.82 208.00 117.00
C 208.54 125.21 208.34 137.46 208.00 146.00
C 207.80 151.04 209.19 155.50 208.00 160.00
C 207.04 163.62 206.06 165.27 202.00 166.00
C 199.21 166.50 195.85 166.00 193.00 166.00
C 186.10 166.00 178.87 166.62 172.00 166.00
C 166.53 166.57 169.80 152.51 169.00 147.00 C 168.20 141.49 169.98 131.16 169.00 124.00 C 168.02 116.84 168.57 108.22 178.00 110.00 C 187.43 111.78 191.98 109.66 201.00 110.00
C 204.26 110.12 207.33 109.10 208.00 113.00
M 421.00 117.00 
C 429.83 118.56 425.94 134.14 417.00 131.00 C 408.05 127.85 412.75 115.54 421.00 117.00
M 137.00 130.00 
C 137.87 134.85 137.27 143.28 137.00 148.00 C 136.73 152.72 139.06 161.94 136.00 165.00
C 133.43 167.57 116.75 166.94 114.00 165.00
C 111.59 163.29 112.21 162.48 112.00 159.00
C 111.48 150.21 110.84 139.72 112.00 131.00
C 113.87 116.99 134.45 115.76 137.00 130.00 Z"/>
</g>
<g fill="#DFFEFF" fill-opacity="0.30" stroke="None">
<path d="
M 121.00 30.00 
C 126.86 22.35 116.02 3.49 131.00 4.00
C 114.23 1.28 126.43 19.72 121.00 30.00 Z"/>
</g>
<g fill="#F9FCFD" fill-opacity="0.97" stroke="None">
<path d="
M 121.00 30.00 
C 112.14 41.56 94.63 48.68 84.00 59.00
C 81.37 61.56 77.57 63.26 75.00 66.00
C 75.00 66.00 75.24 66.69 75.00 67.00
C 75.50 70.38 80.71 68.37 83.00 70.00
C 85.32 71.65 84.45 72.39 85.00 75.00
C 86.44 78.14 87.69 86.72 87.00 94.00 C 86.31 101.28 87.41 109.52 87.00 117.00 C 86.59 124.48 87.41 132.45 87.00 140.00 C 86.59 147.55 87.68 155.45 87.00 163.00
C 88.49 168.57 102.64 162.93 107.00 164.00
C 107.00 162.33 107.00 160.67 107.00 159.00
C 106.72 145.45 103.36 121.77 120.00 116.00
C 123.02 114.95 125.06 115.14 128.00 116.00
C 136.35 118.43 139.95 125.08 142.00 133.00
C 144.44 142.39 142.26 153.85 143.00 164.00
C 149.67 164.00 156.33 164.00 163.00 164.00
C 163.67 136.17 161.67 107.01 164.00 80.00
C 164.00 70.97 164.83 72.47 172.00 70.00
C 171.16 68.49 175.16 65.30 175.00 67.00
C 175.07 62.43 165.73 60.01 163.25 56.75 C 160.76 53.50 154.39 50.98 151.25 47.75 C 148.11 44.53 142.65 41.35 139.00 39.00
C 135.17 36.53 128.71 32.80 128.00 28.00
C 127.06 21.60 130.31 22.67 135.00 22.00
C 138.95 21.44 145.75 22.14 150.00 21.00
C 151.15 20.16 152.25 21.23 152.00 19.00
C 149.98 17.06 150.74 9.91 151.00 7.00
C 149.24 3.14 135.11 4.67 131.00 4.00
C 116.02 3.49 126.86 22.35 121.00 30.00
M 128.00 89.00 
C 125.06 90.02 122.90 90.10 120.00 89.00
C 115.87 87.44 112.97 83.70 111.00 80.00
C 108.90 76.06 109.33 75.86 111.00 72.00
C 111.17 70.98 111.67 69.02 112.00 68.00
C 112.98 64.92 114.51 64.62 116.00 64.00
C 123.18 61.00 132.33 59.77 136.75 68.25 C 141.17 76.73 136.49 86.06 128.00 89.00 Z"/>
</g>
<g fill="#EEFEFF" fill-opacity="0.58" stroke="None">
<path d="
M 152.00 19.00 
C 152.00 19.00 152.00 18.50 152.00 18.00
C 152.00 14.38 152.33 10.60 152.00 7.00
C 152.00 7.00 151.09 7.19 151.00 7.00
C 150.74 9.91 149.98 17.06 152.00 19.00 Z"/>
</g>
<g fill="#CEFFFF" fill-opacity="0.02" stroke="None">
<path d="
M 152.00 18.00 
C 153.46 16.02 154.00 8.94 152.00 7.00
C 152.33 10.60 152.00 14.38 152.00 18.00 Z"/>
</g>
<g fill="#E2FEFF" fill-opacity="0.38" stroke="None">
<path d="
M 135.00 22.00 
C 140.69 22.09 145.32 24.41 150.00 21.00
C 145.75 22.14 138.95 21.44 135.00 22.00 Z"/>
</g>
<g fill="#D8FFFF" fill-opacity="0.15" stroke="None">
<path d="
M 139.00 39.00 
C 136.47 36.92 128.76 31.27 128.00 28.00
C 128.71 32.80 135.17 36.53 139.00 39.00 Z"/>
</g>
<g fill="#D7FFFF" fill-opacity="0.21" stroke="None">
<path d="
M 75.00 66.00 
C 77.57 63.26 81.37 61.56 84.00 59.00
C 80.98 61.16 76.96 62.00 75.00 66.00 Z"/>
</g>
<g fill="#000000" fill-opacity="0.00" stroke="None">
<path d="
M 116.00 64.00 
C 115.46 64.39 112.23 67.55 112.00 68.00
C 111.67 69.02 111.17 70.98 111.00 72.00
C 110.65 74.11 110.52 77.92 111.00 80.00
C 112.97 83.70 115.87 87.44 120.00 89.00
C 122.00 89.46 125.99 89.41 128.00 89.00
C 136.49 86.06 141.17 76.73 136.75 68.25 C 132.33 59.77 123.18 61.00 116.00 64.00
M 132.00 69.00 
C 138.87 77.12 131.39 88.00 120.93 85.07 C 110.47 82.14 112.58 66.81 122.00 65.00
C 126.52 64.13 129.35 65.87 132.00 69.00 Z"/>
</g>
<g fill="#DFFDFF" fill-opacity="0.47" stroke="None">
<path d="
M 112.00 68.00 
C 112.23 67.55 115.46 64.39 116.00 64.00
C 114.51 64.62 112.98 64.92 112.00 68.00 Z"/>
</g>
<g fill="#EDF9FB" fill-opacity="0.89" stroke="None">
<path d="
M 132.00 69.00 
C 130.29 67.55 123.63 64.81 122.00 65.00
C 112.58 66.81 110.47 82.14 120.93 85.07 C 131.39 88.00 138.87 77.12 132.00 69.00 Z"/>
</g>
<g fill="#D4FEFF" fill-opacity="0.25" stroke="None">
<path d="
M 132.00 69.00 
C 129.35 65.87 126.52 64.13 122.00 65.00
C 123.63 64.81 130.29 67.55 132.00 69.00 Z"/>
</g>
<g fill="#D5FDFF" fill-opacity="0.50" stroke="None">
<path d="
M 172.00 70.00 
C 173.84 69.37 174.96 69.40 175.00 67.00
C 175.16 65.30 171.16 68.49 172.00 70.00 Z"/>
</g>
<g fill="#DCFEFF" fill-opacity="0.54" stroke="None">
<path d="
M 83.00 70.00 
C 80.71 68.37 75.50 70.38 75.00 67.00
C 71.52 71.37 81.36 69.20 83.00 70.00 Z"/>
</g>
<g fill="#ECFEFF" fill-opacity="0.30" stroke="None">
<path d="
M 111.00 80.00 
C 110.52 77.92 110.65 74.11 111.00 72.00
C 109.33 75.86 108.90 76.06 111.00 80.00 Z"/>
</g>
<g fill="#F7FCFD" fill-opacity="0.95" stroke="None">
<path d="
M 36.00 94.00 
C 35.43 95.43 32.05 100.04 32.00 101.00
C 35.10 107.61 48.21 105.27 56.00 106.00 C 63.79 106.73 72.96 104.96 81.00 105.00
C 80.18 98.90 81.00 91.79 81.00 85.00
C 80.96 84.49 80.99 78.97 81.00 79.00
C 79.34 72.09 68.77 75.68 64.00 76.00
C 59.84 76.28 55.40 75.41 52.00 75.00
C 43.56 74.98 38.98 86.50 36.00 94.00 Z"/>
</g>
<g fill="#E4FDFF" fill-opacity="0.60" stroke="None">
<path d="
M 85.00 75.00 
C 87.82 88.37 84.32 104.83 86.00 119.00 C 87.68 133.17 84.66 148.24 86.00 163.00
C 86.00 163.04 87.00 163.00 87.00 163.00
C 87.68 155.45 86.59 147.55 87.00 140.00 C 87.41 132.45 86.59 124.48 87.00 117.00 C 87.41 109.52 86.31 101.28 87.00 94.00 C 87.69 86.72 86.44 78.14 85.00 75.00 Z"/>
</g>
<g fill="#D6FFFF" fill-opacity="0.13" stroke="None">
<path d="
M 64.00 76.00 
C 60.88 75.91 55.91 75.01 52.00 75.00
C 55.40 75.41 59.84 76.28 64.00 76.00 Z"/>
</g>
<g fill="#F8FCFD" fill-opacity="0.93" stroke="None">
<path d="
M 169.00 91.00 
C 169.86 95.15 172.33 100.41 170.00 105.00
C 173.30 108.30 182.06 105.31 187.00 106.00 C 191.94 106.69 199.79 106.00 205.00 106.00
C 206.83 105.82 211.53 106.12 213.00 106.00
C 222.84 104.24 214.85 93.96 212.00 89.00
C 210.32 86.69 209.20 85.74 208.00 83.00
C 206.13 78.71 205.57 77.39 201.00 76.00
C 198.05 75.50 193.38 75.23 191.00 75.00
C 185.27 75.00 176.90 73.81 171.70 75.70 C 166.50 77.60 168.73 87.05 169.00 91.00 Z"/>
</g>
<g fill="#D1FFFF" fill-opacity="0.42" stroke="None">
<path d="
M 201.00 76.00 
C 198.03 75.10 194.64 75.00 191.00 75.00
C 193.38 75.23 198.05 75.50 201.00 76.00 Z"/>
</g>
<g fill="#D1FFFF" fill-opacity="0.45" stroke="None">
<path d="
M 81.00 85.00 
C 81.00 83.18 81.42 80.76 81.00 79.00
C 80.99 78.97 80.96 84.49 81.00 85.00 Z"/>
</g>
<g fill="#E1FDFE" fill-opacity="0.57" stroke="None">
<path d="
M 142.00 133.00 
C 141.72 142.49 142.10 156.00 142.00 166.00
C 147.01 163.27 159.21 169.74 164.00 165.00
C 164.80 163.76 163.95 159.53 164.00 158.00
C 164.86 132.85 164.00 105.93 164.00 80.00
C 161.67 107.01 163.67 136.17 163.00 164.00
C 156.33 164.00 149.67 164.00 143.00 164.00
C 142.26 153.85 144.44 142.39 142.00 133.00 Z"/>
</g>
<g fill="#D3FFFF" fill-opacity="0.13" stroke="None">
<path d="
M 212.00 89.00 
C 210.83 86.96 209.03 84.91 208.00 83.00
C 209.20 85.74 210.32 86.69 212.00 89.00 Z"/>
</g>
<g fill="#DDFFFF" fill-opacity="0.70" stroke="None">
<path d="
M 233.00 130.00 
C 230.91 116.58 235.78 110.12 233.00 96.00 C 230.22 81.88 244.17 83.46 255.00 83.00
C 247.33 83.00 239.67 83.00 232.00 83.00
C 232.34 87.90 231.54 94.24 232.00 99.00 C 232.46 103.76 231.12 110.77 232.00 115.00 C 232.88 119.23 229.65 127.66 233.00 130.00 Z"/>
</g>
<g fill="#F9FEFD" fill-opacity="0.95" stroke="None">
<path d="
M 233.00 130.00 
C 237.95 133.46 250.04 128.12 256.00 130.00 C 261.96 131.88 268.47 127.17 272.75 123.75 C 277.04 120.33 278.98 114.68 279.00 110.00
C 279.01 107.67 279.01 105.33 279.00 103.00
C 278.95 90.39 266.89 83.65 255.00 83.00
C 244.17 83.46 230.22 81.88 233.00 96.00 C 235.78 110.12 230.91 116.58 233.00 130.00
M 256.00 93.00 
C 261.48 94.42 265.58 97.43 267.32 102.68 C 269.06 107.92 266.70 115.04 262.75 117.75 C 258.81 120.46 248.15 123.91 244.00 121.00
C 241.21 119.04 243.30 111.73 243.00 108.00 C 242.70 104.27 242.64 96.99 243.00 93.00
C 244.69 89.81 253.52 92.36 256.00 93.00 Z"/>
</g>
<g fill="#F8FDFD" fill-opacity="0.91" stroke="None">
<path d="
M 300.00 127.00 
C 299.84 127.65 299.69 129.57 299.00 130.00
C 303.00 130.00 307.00 130.00 311.00 130.00
C 311.12 116.49 325.53 120.33 335.00 120.00
C 335.45 123.74 337.91 126.48 339.00 130.00
C 342.99 129.82 347.01 130.24 351.00 130.00
C 350.61 129.81 350.11 128.38 350.00 128.00
C 348.25 121.98 345.77 116.41 343.00 111.00
C 341.74 115.38 341.69 107.70 342.00 109.00
C 338.69 102.03 336.78 90.09 331.00 85.00
C 329.47 84.06 320.97 82.71 320.00 83.00
C 314.39 85.17 312.73 99.03 309.31 104.31 C 305.88 109.58 301.59 120.70 300.00 127.00
M 330.00 108.00 
C 330.45 109.11 332.56 110.25 332.00 112.00
C 328.48 111.08 317.74 114.09 319.00 110.00
C 318.83 105.40 323.90 100.00 325.00 96.00
C 326.31 100.10 328.24 104.01 330.00 108.00 Z"/>
</g>
<g fill="#D8FFFF" fill-opacity="0.59" stroke="None">
<path d="
M 331.00 85.00 
C 329.07 83.30 323.83 81.51 320.00 83.00
C 320.97 82.71 329.47 84.06 331.00 85.00 Z"/>
</g>
<g fill="#D6FDFF" fill-opacity="0.60" stroke="None">
<path d="
M 373.00 87.00 
C 373.37 86.24 374.61 85.35 374.00 84.00
C 385.33 84.00 396.67 84.00 408.00 84.00
C 408.00 86.67 408.00 89.33 408.00 92.00
C 411.32 91.65 407.73 85.87 409.00 83.00
C 397.00 83.00 385.00 83.00 373.00 83.00
C 372.71 84.25 373.37 85.78 373.00 87.00 Z"/>
</g>
<g fill="#D7FEFF" fill-opacity="0.63" stroke="None">
<path d="
M 433.00 89.00 
C 433.36 87.77 434.75 85.87 434.00 84.00
C 445.17 84.67 457.66 82.67 468.00 85.00
C 468.32 85.24 469.00 85.00 469.00 85.00
C 459.91 80.37 444.52 84.31 433.00 83.00
C 432.77 84.96 433.31 87.05 433.00 89.00 Z"/>
</g>
<g fill="#FBFEFD" fill-opacity="0.98" stroke="None">
<path d="
M 373.00 87.00 
C 370.71 94.48 373.00 103.81 373.00 112.00
C 373.51 117.26 374.70 124.03 374.00 130.00
C 374.98 130.69 382.83 130.47 384.00 130.00
C 383.03 127.03 383.04 114.90 385.00 113.00
C 385.00 113.00 385.50 113.00 386.00 113.00
C 389.46 110.44 400.41 111.59 405.00 112.00
C 405.22 109.69 404.84 107.32 405.00 105.00
C 398.17 104.34 390.01 106.32 384.00 104.00
C 383.76 101.40 382.91 93.46 385.00 92.00
C 390.07 88.45 402.18 94.44 408.00 92.00
C 408.00 89.33 408.00 86.67 408.00 84.00
C 396.67 84.00 385.33 84.00 374.00 84.00
C 374.61 85.35 373.37 86.24 373.00 87.00 Z"/>
</g>
<g fill="#F9FDFD" fill-opacity="0.96" stroke="None">
<path d="
M 433.00 89.00 
C 431.19 100.38 432.08 112.59 433.00 124.00
C 433.25 125.42 434.86 127.91 434.00 130.00
C 436.70 131.96 449.84 129.68 453.00 130.00 C 456.16 130.32 469.19 131.25 470.00 130.00
C 468.31 128.23 469.00 124.52 469.00 122.00
C 464.20 122.43 447.07 124.19 444.00 121.00
C 443.73 118.96 443.68 116.03 444.00 114.00
C 444.20 112.70 444.41 112.14 445.00 111.00
C 446.56 107.98 460.08 111.18 465.00 110.00
C 465.00 107.33 465.00 104.67 465.00 102.00
C 460.14 99.26 449.53 105.17 445.00 102.00
C 443.74 101.12 443.25 95.53 444.00 94.00
C 446.67 88.61 462.75 93.31 468.00 92.00
C 468.23 89.70 467.69 87.29 468.00 85.00
C 457.66 82.67 445.17 84.67 434.00 84.00
C 434.75 85.87 433.36 87.77 433.00 89.00 Z"/>
</g>
<g fill="#EEEFF0" fill-opacity="0.58" stroke="None">
<path d="
M 468.00 92.00 
C 469.45 90.91 469.20 87.81 469.00 86.00
C 469.00 86.00 469.25 85.25 469.00 85.00
C 469.00 85.00 468.32 85.24 468.00 85.00
C 467.69 87.29 468.23 89.70 468.00 92.00 Z"/>
</g>
<g fill="#FFFFFF" fill-opacity="0.01" stroke="None">
<path d="
M 468.00 92.00 
C 469.78 91.56 471.23 88.86 469.00 86.00
C 469.20 87.81 469.45 90.91 468.00 92.00 Z"/>
</g>
<g fill="#D1FFFF" fill-opacity="0.04" stroke="None">
<path d="
M 128.00 89.00 
C 125.99 89.41 122.00 89.46 120.00 89.00
C 122.90 90.10 125.06 90.02 128.00 89.00 Z"/>
</g>
<g fill="#D9FEFF" fill-opacity="0.43" stroke="None">
<path d="
M 170.00 105.00 
C 172.33 100.41 169.86 95.15 169.00 91.00
C 169.25 94.63 167.46 102.46 170.00 105.00 Z"/>
</g>
<g fill="#DAFEFF" fill-opacity="0.27" stroke="None">
<path d="
M 243.00 93.00 
C 243.00 92.96 244.00 93.00 244.00 93.00
C 247.88 93.00 252.16 92.49 256.00 93.00
C 253.52 92.36 244.69 89.81 243.00 93.00 Z"/>
</g>
<g fill="#D5FFFF" fill-opacity="0.07" stroke="None">
<path d="
M 384.00 104.00 
C 384.00 104.05 385.00 104.00 385.00 104.00
C 385.36 100.03 384.73 95.98 385.00 92.00
C 382.91 93.46 383.76 101.40 384.00 104.00 Z"/>
</g>
<g fill="#E8FFFF" fill-opacity="0.03" stroke="None">
<path d="
M 244.00 121.00 
C 243.37 111.72 244.84 102.26 244.00 93.00
C 244.00 93.00 243.00 92.96 243.00 93.00
C 242.64 96.99 242.70 104.27 243.00 108.00 C 243.30 111.73 241.21 119.04 244.00 121.00 Z"/>
</g>
<g fill="#000000" fill-opacity="0.00" stroke="None">
<path d="
M 244.00 121.00 
C 248.15 123.91 258.81 120.46 262.75 117.75 C 266.70 115.04 269.06 107.92 267.32 102.68 C 265.58 97.43 261.48 94.42 256.00 93.00
C 252.16 92.49 247.88 93.00 244.00 93.00
C 244.84 102.26 243.37 111.72 244.00 121.00 Z"/>
</g>
<g fill="#EBFFFF" fill-opacity="0.25" stroke="None">
<path d="
M 32.00 101.00 
C 32.05 100.04 35.43 95.43 36.00 94.00
C 34.85 96.10 31.78 97.92 32.00 101.00 Z"/>
</g>
<g fill="#CDFFFF" fill-opacity="0.02" stroke="None">
<path d="
M 445.00 102.00 
C 446.32 100.23 443.67 94.79 444.00 94.00
C 443.25 95.53 443.74 101.12 445.00 102.00 Z"/>
</g>
<g fill="#000000" fill-opacity="0.00" stroke="None">
<path d="
M 319.00 110.00 
C 321.76 112.16 326.49 110.45 330.00 111.00
C 330.00 110.00 330.00 109.00 330.00 108.00
C 328.24 104.01 326.31 100.10 325.00 96.00
C 323.90 100.00 318.83 105.40 319.00 110.00 Z"/>
</g>
<g fill="#E1FEFF" fill-opacity="0.47" stroke="None">
<path d="
M 445.00 111.00 
C 451.57 111.40 459.73 110.72 467.00 111.00
C 466.66 108.74 467.18 103.23 465.00 102.00
C 465.00 104.67 465.00 107.33 465.00 110.00
C 460.08 111.18 446.56 107.98 445.00 111.00 Z"/>
</g>
<g fill="#DEFFFF" fill-opacity="0.05" stroke="None">
<path d="
M 279.00 110.00 
C 279.31 107.65 279.31 105.41 279.00 103.00
C 279.01 105.33 279.01 107.67 279.00 110.00 Z"/>
</g>
<g fill="#E5FEFF" fill-opacity="0.56" stroke="None">
<path d="
M 405.00 112.00 
C 404.95 112.50 405.00 113.00 405.00 113.00
C 409.62 112.31 404.57 106.94 406.00 104.00
C 399.00 104.00 392.00 104.00 385.00 104.00
C 385.00 104.00 384.00 104.05 384.00 104.00
C 390.01 106.32 398.17 104.34 405.00 105.00
C 404.84 107.32 405.22 109.69 405.00 112.00 Z"/>
</g>
<g fill="#D5FFFF" fill-opacity="0.02" stroke="None">
<path d="
M 205.00 106.00 
C 207.53 106.00 210.52 106.45 213.00 106.00
C 211.53 106.12 206.83 105.82 205.00 106.00 Z"/>
</g>
<g fill="#E7FEFD" fill-opacity="0.17" stroke="None">
<path d="
M 319.00 110.00 
C 317.74 114.09 328.48 111.08 332.00 112.00
C 332.56 110.25 330.45 109.11 330.00 108.00
C 330.00 109.00 330.00 110.00 330.00 111.00
C 326.49 110.45 321.76 112.16 319.00 110.00 Z"/>
</g>
<g fill="#EEFFFF" fill-opacity="0.62" stroke="None">
<path d="
M 343.00 111.00 
C 342.73 110.47 342.19 109.40 342.00 109.00
C 341.69 107.70 341.74 115.38 343.00 111.00 Z"/>
</g>
<g fill="#D6FEFF" fill-opacity="0.33" stroke="None">
<path d="
M 42.00 162.00 
C 38.99 148.13 44.13 134.24 42.00 120.00 C 39.87 105.76 65.36 111.31 75.00 110.00
C 65.86 110.00 54.97 109.46 46.00 110.00 C 37.04 110.54 41.25 126.54 41.00 134.00 C 40.75 141.46 39.43 155.21 42.00 162.00 Z"/>
</g>
<g fill="#FAFEFD" fill-opacity="0.98" stroke="None">
<path d="
M 42.00 162.00 
C 42.64 163.70 42.34 163.95 44.00 165.00
C 46.40 165.99 51.36 165.00 54.00 165.00
C 61.57 164.27 70.71 163.47 79.00 164.00
C 79.00 146.67 79.00 129.33 79.00 112.00
C 79.00 111.50 79.24 110.32 79.00 110.00
C 78.74 109.66 75.51 110.00 75.00 110.00
C 65.36 111.31 39.87 105.76 42.00 120.00 C 44.13 134.24 38.99 148.13 42.00 162.00
M 64.00 129.00 
C 67.12 132.03 66.85 140.37 65.00 144.00
C 56.70 160.25 52.99 118.32 64.00 129.00 Z"/>
</g>
<g fill="#D0FEFF" fill-opacity="0.31" stroke="None">
<path d="
M 79.00 112.00 
C 81.67 118.28 79.89 127.68 80.00 135.00 C 80.11 142.32 80.49 151.35 81.00 158.00
C 81.10 153.19 80.95 145.52 81.00 141.00 C 81.05 136.48 80.96 127.47 81.00 124.00 C 81.04 120.53 81.82 109.41 79.00 110.00
C 79.24 110.32 79.00 111.50 79.00 112.00 Z"/>
</g>
<g fill="#D7FEFF" fill-opacity="0.32" stroke="None">
<path d="
M 172.00 166.00 
C 171.96 166.00 172.00 165.00 172.00 165.00
C 167.32 162.87 170.78 154.01 170.00 149.00 C 169.22 143.99 170.41 135.64 170.00 130.00 C 169.59 124.36 170.30 116.81 170.00 111.00
C 180.00 111.00 190.00 111.00 200.00 111.00
C 200.35 110.95 200.76 110.07 201.00 110.00
C 191.98 109.66 187.43 111.78 178.00 110.00 C 168.57 108.22 168.02 116.84 169.00 124.00 C 169.98 131.16 168.20 141.49 169.00 147.00 C 169.80 152.51 166.53 166.57 172.00 166.00 Z"/>
</g>
<g fill="#E4FBFE" fill-opacity="0.65" stroke="None">
<path d="
M 200.00 111.00 
C 200.70 111.07 207.49 111.98 208.00 113.00
C 207.33 109.10 204.26 110.12 201.00 110.00
C 200.76 110.07 200.35 110.95 200.00 111.00 Z"/>
</g>
<g fill="#F9FCFD" fill-opacity="0.98" stroke="None">
<path d="
M 172.00 165.00 
C 178.87 164.38 186.10 165.00 193.00 165.00
C 195.57 165.00 200.34 166.14 202.00 166.00
C 206.06 165.27 207.04 163.62 208.00 160.00
C 208.25 156.58 207.00 150.25 207.00 146.00
C 207.00 136.24 207.08 126.40 208.00 117.00
C 208.12 115.82 208.20 114.16 208.00 113.00
C 207.49 111.98 200.70 111.07 200.00 111.00
C 190.00 111.00 180.00 111.00 170.00 111.00
C 170.30 116.81 169.59 124.36 170.00 130.00 C 170.41 135.64 169.22 143.99 170.00 149.00 C 170.78 154.01 167.32 162.87 172.00 165.00
M 192.00 132.00 
C 191.63 131.31 192.77 137.65 192.00 142.00
C 191.93 143.99 192.04 144.58 191.00 146.00
C 190.68 146.45 189.45 147.75 189.00 148.00
C 179.70 153.23 185.37 130.04 184.00 133.00
C 184.16 129.72 186.45 125.36 191.00 127.00
C 191.39 128.57 190.06 131.22 192.00 132.00 Z"/>
</g>
<g fill="#E9FEFE" fill-opacity="0.69" stroke="None">
<path d="
M 54.00 165.00 
C 58.41 165.00 63.34 165.65 67.00 166.00
C 75.73 166.00 80.80 167.82 81.00 158.00
C 80.49 151.35 80.11 142.32 80.00 135.00 C 79.89 127.68 81.67 118.28 79.00 112.00
C 79.00 129.33 79.00 146.67 79.00 164.00
C 70.71 163.47 61.57 164.27 54.00 165.00 Z"/>
</g>
<g fill="#CEFEFF" fill-opacity="0.75" stroke="None">
<path d="
M 374.00 130.00 
C 374.70 124.03 373.51 117.26 373.00 112.00
C 373.00 115.48 371.22 128.06 374.00 130.00 Z"/>
</g>
<g fill="#D8FFFF" fill-opacity="1.00" stroke="None">
<path d="
M 386.00 113.00 
C 392.25 113.00 398.78 113.56 405.00 113.00
C 405.00 113.00 404.95 112.50 405.00 112.00
C 400.41 111.59 389.46 110.44 386.00 113.00 Z"/>
</g>
<g fill="#D2FFFF" fill-opacity="0.05" stroke="None">
<path d="
M 384.00 130.00 
C 386.29 129.07 384.62 117.25 385.00 113.00
C 383.04 114.90 383.03 127.03 384.00 130.00 Z"/>
</g>
<g fill="#CAFFFF" fill-opacity="0.02" stroke="None">
<path d="
M 444.00 121.00 
C 444.01 121.07 445.00 121.00 445.00 121.00
C 445.44 118.58 443.97 115.59 444.00 114.00
C 443.68 116.03 443.73 118.96 444.00 121.00 Z"/>
</g>
<g fill="#DFFFFF" fill-opacity="0.12" stroke="None">
<path d="
M 120.00 116.00 
C 122.16 115.56 125.82 115.65 128.00 116.00
C 125.06 115.14 123.02 114.95 120.00 116.00 Z"/>
</g>
<g fill="#DFFEFF" fill-opacity="0.48" stroke="None">
<path d="
M 207.00 146.00 
C 207.00 145.96 208.00 146.00 208.00 146.00
C 208.34 137.46 208.54 125.21 208.00 117.00
C 207.08 126.40 207.00 136.24 207.00 146.00 Z"/>
</g>
<g fill="#F4FEFD" fill-opacity="0.89" stroke="None">
<path d="
M 294.00 130.00 
C 294.98 129.34 296.88 125.74 297.00 125.00
C 295.47 122.01 297.83 120.07 294.00 118.00
C 295.69 118.79 287.65 117.09 289.00 117.00
C 284.55 117.57 282.78 122.61 284.08 126.92 C 285.39 131.23 290.59 130.79 294.00 130.00 Z"/>
</g>
<g fill="#D6FFFF" fill-opacity="0.52" stroke="None">
<path d="
M 294.00 118.00 
C 292.40 117.13 290.90 116.76 289.00 117.00
C 287.65 117.09 295.69 118.79 294.00 118.00 Z"/>
</g>
<g fill="#F4FDFD" fill-opacity="0.85" stroke="None">
<path d="
M 352.00 126.00 
C 352.22 126.56 354.40 129.61 355.00 130.00
C 361.26 131.15 370.79 126.36 364.22 118.78 C 357.66 111.19 352.90 122.59 352.00 126.00 Z"/>
</g>
<g fill="#F3FEFD" fill-opacity="0.84" stroke="None">
<path d="
M 421.00 117.00 
C 412.75 115.54 408.05 127.85 417.00 131.00 C 425.94 134.14 429.83 118.56 421.00 117.00 Z"/>
</g>
<g fill="#F8FCFD" fill-opacity="0.97" stroke="None">
<path d="
M 112.00 131.00 
C 111.70 139.19 112.31 150.76 112.00 159.00
C 112.21 162.48 111.59 163.29 114.00 165.00
C 119.94 167.87 129.71 162.84 136.00 165.00
C 134.26 153.70 137.87 140.41 137.00 130.00
C 134.45 115.76 113.87 116.99 112.00 131.00 Z"/>
</g>
<g fill="#D5FEFF" fill-opacity="0.66" stroke="None">
<path d="
M 469.00 122.00 
C 469.00 121.50 469.00 121.00 469.00 121.00
C 461.15 120.29 452.89 121.00 445.00 121.00
C 445.00 121.00 444.01 121.07 444.00 121.00
C 447.07 124.19 464.20 122.43 469.00 122.00 Z"/>
</g>
<g fill="#D9FDFF" fill-opacity="0.37" stroke="None">
<path d="
M 469.00 122.00 
C 469.00 124.52 468.31 128.23 470.00 130.00
C 471.01 128.45 470.08 122.04 469.00 121.00
C 469.00 121.00 469.00 121.50 469.00 122.00 Z"/>
</g>
<g fill="#EAF5F7" fill-opacity="0.77" stroke="None">
<path d="
M 434.00 130.00 
C 434.86 127.91 433.25 125.42 433.00 124.00
C 433.16 125.95 432.32 128.78 434.00 130.00 Z"/>
</g>
<g fill="#F4FEFE" fill-opacity="0.20" stroke="None">
<path d="
M 294.00 130.00 
C 297.58 129.17 296.46 129.72 299.00 130.00
C 299.69 129.57 299.84 127.65 300.00 127.00
C 300.07 127.23 297.25 125.49 297.00 125.00
C 296.88 125.74 294.98 129.34 294.00 130.00 Z"/>
</g>
<g fill="#DDFFFF" fill-opacity="0.05" stroke="None">
<path d="
M 350.00 128.00 
C 350.11 128.38 350.61 129.81 351.00 130.00
C 352.96 129.88 352.98 129.63 355.00 130.00
C 354.40 129.61 352.22 126.56 352.00 126.00
C 351.76 126.90 349.92 128.35 350.00 128.00 Z"/>
</g>
<g fill="#000000" fill-opacity="0.00" stroke="None">
<path d="
M 65.00 144.00 
C 65.93 141.22 65.56 131.37 64.00 129.00
C 52.99 118.32 56.70 160.25 65.00 144.00 Z"/>
</g>
<g fill="#000000" fill-opacity="0.00" stroke="None">
<path d="
M 184.00 133.00 
C 183.87 135.53 183.86 148.97 189.00 148.00
C 189.45 147.75 190.68 146.45 191.00 146.00
C 191.58 144.65 191.90 139.05 192.00 138.00
C 192.00 136.07 192.28 133.90 192.00 132.00
C 190.06 131.22 191.39 128.57 191.00 127.00
C 186.45 125.36 184.16 129.72 184.00 133.00 Z"/>
</g>
<g fill="#DDFEFE" fill-opacity="0.49" stroke="None">
<path d="
M 65.00 144.00 
C 66.85 140.37 67.12 132.03 64.00 129.00
C 65.56 131.37 65.93 141.22 65.00 144.00 Z"/>
</g>
<g fill="#C9FEFF" fill-opacity="0.51" stroke="None">
<path d="
M 136.00 165.00 
C 139.06 161.94 136.73 152.72 137.00 148.00 C 137.27 143.28 137.87 134.85 137.00 130.00
C 137.87 140.41 134.26 153.70 136.00 165.00 Z"/>
</g>
<g fill="#EBFDFF" fill-opacity="0.71" stroke="None">
<path d="
M 192.00 132.00 
C 192.28 133.90 192.00 136.07 192.00 138.00
C 192.00 139.33 192.05 140.67 192.00 142.00
C 192.77 137.65 191.63 131.31 192.00 132.00 Z"/>
</g>
<g fill="#E3FFFF" fill-opacity="0.31" stroke="None">
<path d="
M 112.00 159.00 
C 112.31 150.76 111.70 139.19 112.00 131.00
C 110.84 139.72 111.48 150.21 112.00 159.00 Z"/>
</g>
<g fill="#E6FEFF" fill-opacity="0.39" stroke="None">
<path d="
M 189.00 148.00 
C 183.86 148.97 183.87 135.53 184.00 133.00
C 185.37 130.04 179.70 153.23 189.00 148.00 Z"/>
</g>
<g fill="#E1FFFF" fill-opacity="0.03" stroke="None">
<path d="
M 191.00 146.00 
C 192.04 144.58 191.93 143.99 192.00 142.00
C 192.05 140.67 192.00 139.33 192.00 138.00
C 191.90 139.05 191.58 144.65 191.00 146.00 Z"/>
</g>
<g fill="#EDFEFF" fill-opacity="0.35" stroke="None">
<path d="
M 208.00 160.00 
C 209.19 155.50 207.80 151.04 208.00 146.00
C 208.00 146.00 207.00 145.96 207.00 146.00
C 207.00 150.25 208.25 156.58 208.00 160.00 Z"/>
</g>
<g fill="#CBFFFF" fill-opacity="0.09" stroke="None">
<path d="
M 164.00 165.00 
C 166.28 162.74 164.12 160.11 164.00 158.00
C 163.95 159.53 164.80 163.76 164.00 165.00 Z"/>
</g>
<g fill="#DCFEFE" fill-opacity="0.25" stroke="None">
<path d="
M 87.00 163.00 
C 87.00 163.00 86.00 163.04 86.00 163.00
C 83.29 165.63 101.48 167.25 104.92 165.92 C 108.36 164.60 107.06 161.90 107.00 159.00
C 107.00 160.67 107.00 162.33 107.00 164.00
C 102.64 162.93 88.49 168.57 87.00 163.00 Z"/>
</g>
<g fill="#F0FFFF" fill-opacity="0.04" stroke="None">
<path d="
M 67.00 166.00 
C 63.34 165.65 58.41 165.00 54.00 165.00
C 51.36 165.00 46.40 165.99 44.00 165.00
C 48.87 168.08 60.85 166.00 67.00 166.00 Z"/>
</g>
<g fill="#D7FFFF" fill-opacity="0.08" stroke="None">
<path d="
M 136.00 165.00 
C 129.71 162.84 119.94 167.87 114.00 165.00
C 116.75 166.94 133.43 167.57 136.00 165.00 Z"/>
</g>
<g fill="#DEFFFF" fill-opacity="0.13" stroke="None">
<path d="
M 172.00 166.00 
C 178.87 166.62 186.10 166.00 193.00 166.00
C 192.96 166.00 193.00 165.00 193.00 165.00
C 186.10 165.00 178.87 164.38 172.00 165.00
C 172.00 165.00 171.96 166.00 172.00 166.00 Z"/>
</g>
<g fill="#E5FFFF" fill-opacity="0.32" stroke="None">
<path d="
M 193.00 166.00 
C 195.85 166.00 199.21 166.50 202.00 166.00
C 200.34 166.14 195.57 165.00 193.00 165.00
C 193.00 165.00 192.96 166.00 193.00 166.00 Z"/>
</g>
</svg>