<svg width="59" height="60" viewBox="0 0 59 60" fill="none" xmlns="http://www.w3.org/2000/svg">
<path d="M10.799 47.6723C13.5379 45.7019 16.4441 44.1437 19.5176 42.9976C22.591 41.8511 25.9185 41.2778 29.5 41.2778C33.0815 41.2778 36.409 41.8511 39.4824 42.9976C42.5559 44.1437 45.4621 45.7019 48.201 47.6723C50.3287 45.4704 52.04 42.8701 53.3348 39.8713C54.6301 36.8719 55.2778 33.5815 55.2778 30C55.2778 22.8574 52.7671 16.7755 47.7458 11.7542C42.7245 6.73287 36.6426 4.22222 29.5 4.22222C22.3574 4.22222 16.2755 6.73287 11.2542 11.7542C6.23287 16.7755 3.72222 22.8574 3.72222 30C3.72222 33.5815 4.36989 36.8719 5.66522 39.8713C6.96002 42.8701 8.67129 45.4704 10.799 47.6723ZM29.5016 31.6111C26.7864 31.6111 24.4962 30.6791 22.631 28.815C20.7659 26.951 19.8333 24.6613 19.8333 21.9461C19.8333 19.2308 20.7654 16.9406 22.6294 15.0755C24.4935 13.2103 26.7831 12.2778 29.4984 12.2778C32.2136 12.2778 34.5038 13.2098 36.369 15.0739C38.2341 16.9379 39.1667 19.2276 39.1667 21.9428C39.1667 24.6581 38.2346 26.9483 36.3706 28.8134C34.5065 30.6785 32.2169 31.6111 29.5016 31.6111ZM29.5 59C25.4556 59 21.6695 58.2471 18.1417 56.7412C14.6139 55.2354 11.5444 53.1772 8.93336 50.5666C6.32282 47.9556 4.26463 44.8861 2.75878 41.3583C1.25293 37.8305 0.5 34.0444 0.5 30C0.5 25.9556 1.25293 22.1695 2.75878 18.6417C4.26463 15.1139 6.32282 12.0444 8.93336 9.43336C11.5444 6.82282 14.6139 4.76463 18.1417 3.25878C21.6695 1.75292 25.4556 1 29.5 1C33.5444 1 37.3305 1.75292 40.8583 3.25878C44.3861 4.76463 47.4556 6.82282 50.0666 9.43336C52.6772 12.0444 54.7354 15.1139 56.2412 18.6417C57.7471 22.1695 58.5 25.9556 58.5 30C58.5 34.0444 57.7471 37.8305 56.2412 41.3583C54.7354 44.8861 52.6772 47.9556 50.0666 50.5666C47.4556 53.1772 44.3861 55.2354 40.8583 56.7412C37.3305 58.2471 33.5444 59 29.5 59ZM29.5 55.7778C32.4704 55.7778 35.3932 55.2582 38.2685 54.219C41.1432 53.1804 43.6278 51.7583 45.7223 49.9528C43.6278 48.2713 41.205 46.9422 38.4538 45.9653C35.7025 44.9884 32.7179 44.5 29.5 44.5C26.2821 44.5 23.287 44.9782 20.5148 45.9347C17.7432 46.8912 15.3308 48.2305 13.2777 49.9528C15.3722 51.7583 17.8568 53.1804 20.7315 54.219C23.6068 55.2582 26.5296 55.7778 29.5 55.7778ZM29.5 28.3889C31.3093 28.3889 32.8358 27.7673 34.0796 26.524C35.3228 25.2802 35.9444 23.7537 35.9444 21.9444C35.9444 20.1352 35.3228 18.6086 34.0796 17.3649C32.8358 16.1216 31.3093 15.5 29.5 15.5C27.6907 15.5 26.1642 16.1216 24.9204 17.3649C23.6772 18.6086 23.0556 20.1352 23.0556 21.9444C23.0556 23.7537 23.6772 25.2802 24.9204 26.524C26.1642 27.7673 27.6907 28.3889 29.5 28.3889Z" fill="#05366B"/>
</svg>
