<svg width="1440" height="1196" viewBox="0 0 1440 1196" fill="none" xmlns="http://www.w3.org/2000/svg">
<g filter="url(#filter0_f_2071_318)">
<path d="M119 1041.5L226.5 1099L324.5 1087.5L387.5 1041.5H428V987.5V937.5L462.5 914.5C485 907.5 531.9 893.5 539.5 893.5H641H785C803.8 893.5 867.167 879.5 896.5 872.5L929.5 847.5C937.833 828.167 956.4 787.2 964 778C973.5 766.5 1000.5 696 1008 690C1015.5 684 1092.5 655.5 1106 653.5C1119.5 651.5 1186.5 646 1213.5 642C1235.1 638.8 1276.17 616.333 1294 605.5L1334.5 544L1309.5 467L1273 405.5L1213.5 373L1123 350H1065.5C1053.33 353.167 1024.8 362.2 1008 373C987 386.5 971.5 397.5 950.5 415C929.5 432.5 942.5 442 919.5 446C896.5 450 881.5 446 864 446C846.5 446 808 455.5 785 446C762 436.5 702.5 415 683.5 415C664.5 415 627.5 405.5 597 405.5H510.5C462.5 405.5 468.5 384 428 405.5C387.5 427 342 376.5 324.5 467C307 557.5 304.5 547.5 314.5 576.5C324.5 605.5 304.5 630.5 314.5 642C324.5 653.5 326 705.5 314.5 724.5C303 743.5 315 748 276.5 763C238 778 218 787.5 193.5 789.5C169 791.5 151 772 147.5 789.5C144 807 142 792 130.5 859C119 926 94 956.5 94 972C94 984.4 101.667 1008.17 105.5 1018.5L119 1041.5Z" fill="#195492"/>
</g>
<defs>
<filter id="filter0_f_2071_318" x="-256" y="0" width="1940.5" height="1449" filterUnits="userSpaceOnUse" color-interpolation-filters="sRGB">
<feFlood flood-opacity="0" result="BackgroundImageFix"/>
<feBlend mode="normal" in="SourceGraphic" in2="BackgroundImageFix" result="shape"/>
<feGaussianBlur stdDeviation="175" result="effect1_foregroundBlur_2071_318"/>
</filter>
</defs>
</svg>
