<svg xmlns="http://www.w3.org/2000/svg" width="1402" height="223" viewBox="0 0 1402 223">
<g>
<path d="M 579.50 76.51 C600.38,81.13 624.83,75.39 645.00,61.13 C658.64,51.49 687.00,19.91 687.00,14.36 C687.00,11.75 685.12,10.00 682.30,10.00 C679.66,10.00 678.74,10.92 671.78,20.50 C668.98,24.35 661.68,32.51 655.56,38.63 C636.85,57.33 621.44,65.78 602.02,68.00 C584.55,69.99 570.91,65.63 559.13,54.28 C558.60,53.78 558.11,53.31 557.66,52.89 C555.00,50.36 553.62,49.04 553.74,47.89 C553.90,46.43 556.42,45.23 561.76,42.20 C570.45,37.28 580.57,27.18 583.74,20.27 C586.40,14.47 587.08,8.29 585.66,2.75 C584.98,0.08 584.75,0.00 578.08,0.00 L 1108.62 0.00 C1097.87,0.00 1097.27,0.11 1096.30,2.25 C1094.99,5.11 1096.26,8.63 1098.90,9.47 C1101.11,10.17 1105.00,8.54 1105.00,6.91 C1105.00,6.34 1105.40,6.13 1105.90,6.44 C1106.42,6.76 1106.43,8.56 1105.92,10.74 C1103.56,20.93 1106.19,38.07 1111.68,48.15 C1117.48,58.81 1130.20,68.52 1142.50,71.67 C1156.05,75.15 1172.31,70.09 1181.81,59.43 C1195.46,44.11 1198.59,23.81 1190.00,6.35 L 1186.87 0.00 L 1402.00 0.00 L 1402.00 223.00 L 0.00 223.00 L 0.00 0.00 L 104.00 0.00 L 104.00 5.69 C104.00,10.97 105.38,36.74 108.00,80.50 C108.59,90.40 109.74,109.52 110.54,122.99 C111.34,136.45 112.00,150.40 112.01,153.99 C112.01,157.57 112.48,162.19 113.05,164.25 C113.94,167.45 114.51,168.00 116.92,168.00 C118.48,168.00 120.34,167.30 121.05,166.44 C121.08,166.41 121.11,166.37 121.13,166.34 C122.36,164.80 122.22,162.16 115.46,37.70 L 115.45 37.50 C114.65,22.65 113.73,8.14 113.42,5.25 L 112.86 0.00 L 290.34 0.00 L 293.40 6.17 C304.03,27.62 290.32,53.00 268.10,53.00 C247.77,53.00 234.22,37.45 239.46,20.14 C241.98,11.82 247.03,5.36 253.31,2.43 L 258.50 0.02 L 248.82 0.01 C239.39,0.00 239.09,0.07 237.20,2.75 C231.93,10.21 229.66,16.43 229.21,24.63 C228.24,42.13 236.77,54.64 254.00,61.01 C258.37,62.63 261.25,62.97 268.00,62.67 C279.36,62.16 286.38,59.39 293.88,52.45 C306.35,40.91 310.52,19.37 303.31,3.75 C301.61,0.07 301.48,0.00 295.96,0.00 L 467.86 0.00 C463.22,0.00 463.00,0.13 463.02,2.75 C463.05,8.64 466.13,19.83 469.59,26.70 C476.10,39.61 489.16,49.76 504.28,53.66 C512.30,55.73 524.45,55.66 535.41,53.49 C540.19,52.54 544.20,51.93 544.33,52.13 C546.97,56.24 553.35,62.85 558.24,66.54 C565.52,72.03 571.14,74.67 579.50,76.51 ZM 900.43 171.13 C909.91,174.36 924.26,172.64 932.89,167.22 C942.63,161.12 950.96,149.87 953.96,138.78 C956.01,131.23 954.89,116.88 951.63,109.00 C947.96,100.12 939.85,90.36 932.46,85.94 C925.25,81.64 915.86,78.00 911.97,78.00 C910.40,78.00 908.87,77.61 908.58,77.12 C908.06,76.29 912.52,74.84 919.81,73.45 C923.74,72.70 925.66,69.10 923.90,65.81 C922.90,63.94 922.19,63.81 916.46,64.39 C905.77,65.49 892.44,71.35 885.50,78.00 C883.30,80.11 878.80,83.42 875.50,85.35 C867.76,89.90 859.94,96.83 857.54,101.29 C855.75,104.63 855.74,104.95 857.35,107.41 C859.31,110.40 861.56,110.71 864.18,108.34 C865.19,107.43 866.19,106.86 866.41,107.09 C866.62,107.32 866.44,111.10 866.01,115.49 C863.42,141.68 876.60,163.00 900.43,171.13 ZM 1319.20 156.80 C1320.68,158.28 1323.98,158.34 1327.62,156.96 C1329.13,156.38 1335.57,154.56 1341.93,152.91 C1348.29,151.26 1359.57,148.18 1367.00,146.08 C1374.43,143.98 1382.64,141.69 1385.25,141.00 L 1390.00 139.74 L 1390.00 134.75 C1390.00,130.07 1389.86,129.80 1387.75,130.37 C1386.51,130.70 1382.35,131.70 1378.50,132.60 C1374.65,133.49 1366.55,135.73 1360.50,137.57 C1340.40,143.68 1337.07,144.12 1340.11,140.29 C1342.53,137.22 1364.52,112.04 1377.46,97.50 L 1389.92 83.50 L 1389.96 73.75 C1389.99,65.80 1389.73,64.00 1388.52,64.00 C1387.71,64.00 1380.62,66.09 1372.77,68.65 C1364.92,71.20 1352.80,74.98 1345.82,77.05 C1338.85,79.12 1332.21,81.11 1331.07,81.48 C1329.92,81.84 1329.00,81.69 1329.00,81.13 C1329.00,79.81 1368.81,33.66 1383.03,18.50 C1388.40,12.78 1389.06,11.38 1387.90,8.25 C1386.63,4.84 1383.61,5.34 1365.24,12.07 C1356.12,15.40 1345.47,19.20 1341.58,20.50 C1334.60,22.83 1316.05,29.47 1302.60,34.45 C1298.81,35.85 1295.56,37.00 1295.39,37.00 C1295.21,37.00 1294.57,37.93 1293.96,39.07 C1293.10,40.67 1293.21,41.67 1294.45,43.57 C1296.51,46.71 1298.46,46.63 1307.80,43.02 C1321.15,37.86 1362.90,23.00 1364.04,23.00 C1366.05,23.00 1363.23,26.34 1317.75,77.84 C1306.47,90.61 1305.28,93.13 1308.97,96.47 C1310.87,98.19 1311.75,97.99 1334.72,90.68 C1366.76,80.48 1378.39,77.00 1380.46,77.00 C1381.89,77.00 1381.69,77.60 1379.35,80.41 C1373.92,86.90 1353.19,110.59 1335.64,130.36 C1317.68,150.58 1315.88,153.48 1319.20,156.80 ZM 925.39 159.95 C919.63,162.83 909.37,163.60 903.29,161.61 C888.85,156.89 878.80,145.10 875.92,129.50 C874.03,119.32 876.80,105.35 882.45,96.52 C886.64,89.97 887.83,89.28 897.41,87.95 C916.52,85.29 934.27,94.67 942.20,111.61 C945.06,117.72 945.21,118.64 944.81,127.79 C944.50,134.86 943.81,138.79 942.25,142.25 C939.47,148.43 931.32,156.99 925.39,159.95 ZM 1119.93 0.00 L 1174.80 0.00 L 1176.97 3.25 C1182.89,12.10 1184.50,17.10 1184.48,26.50 C1184.45,38.73 1181.92,45.03 1173.61,53.50 C1166.84,60.40 1160.93,63.00 1152.00,63.00 C1142.21,63.00 1128.71,55.79 1123.03,47.54 C1116.71,38.35 1115.64,34.62 1115.61,21.50 C1115.58,11.25 1115.89,8.81 1117.75,4.75 L 1119.93 0.00 ZM 555.99 0.00 L 550.93 0.20 L 543.50 0.50 L 540.67 6.17 C536.49,14.57 535.30,23.03 537.05,32.13 C537.83,36.18 538.48,40.13 538.49,40.90 C538.51,42.96 531.60,45.02 522.50,45.68 C497.41,47.48 475.52,30.03 473.32,6.48 L 472.71 0.00 L 555.99 0.00 ZM 424.00 221.75 C424.00,222.56 425.55,223.00 428.43,223.00 C431.81,223.00 432.97,222.58 433.33,221.25 C440.86,192.61 441.11,151.85 433.96,119.00 C431.18,106.26 423.89,84.88 421.90,83.67 C419.70,82.33 415.23,83.63 414.76,85.75 C414.55,86.71 415.23,89.97 416.27,93.00 C430.16,133.42 433.34,172.03 425.93,210.50 C424.87,216.00 424.00,221.06 424.00,221.75 ZM 748.38 113.46 C750.32,116.42 753.04,116.73 755.24,114.25 C756.47,112.86 756.88,108.82 757.26,94.50 C757.65,79.69 758.18,74.64 760.29,66.00 C765.40,45.08 772.97,27.37 783.73,11.19 C786.90,6.41 789.86,1.94 790.30,1.25 C790.91,0.30 789.60,0.01 784.80,0.03 L 778.50 0.06 L 775.62 4.78 C763.19,25.14 752.60,51.57 749.47,70.05 C748.59,75.25 747.61,86.57 747.29,95.21 C746.80,108.82 746.94,111.26 748.38,113.46 ZM 189.26 209.24 C190.63,210.47 191.68,210.70 192.93,210.04 C197.34,207.68 197.41,206.71 194.03,193.32 C192.27,186.34 189.31,174.07 187.45,166.06 C185.59,158.05 182.24,144.07 180.02,135.00 C177.80,125.93 174.87,113.78 173.53,108.00 C169.98,92.79 169.24,91.00 166.48,91.00 C165.21,91.00 163.45,91.27 162.58,91.61 C159.72,92.71 159.87,93.56 171.12,140.00 C177.03,164.40 183.81,192.54 185.68,200.50 C186.61,204.43 188.18,208.26 189.26,209.24 ZM 571.20 0.00 L 574.20 3.22 C576.77,5.96 577.13,7.00 576.68,10.32 C575.93,15.94 571.30,22.76 564.47,28.31 C559.42,32.41 550.26,38.00 548.58,38.00 C547.58,38.00 546.01,30.33 546.01,25.43 C546.00,17.21 548.57,10.38 553.76,4.83 L 558.27 0.00 L 571.20 0.00 ZM 241.49 201.75 C243.41,205.96 247.45,206.30 249.23,202.39 C250.23,200.21 249.98,198.00 247.76,189.14 C246.29,183.29 243.19,170.62 240.87,161.00 C238.55,151.38 236.22,142.94 235.70,142.25 C235.18,141.56 233.24,141.00 231.40,141.00 C228.73,141.00 227.92,141.47 227.46,143.30 C226.85,145.74 238.95,196.16 241.49,201.75 ZM 1359.70 183.55 C1361.09,184.95 1362.56,185.14 1367.95,184.63 C1371.55,184.29 1377.99,184.01 1382.25,184.01 L 1390.00 184.00 L 1390.00 174.00 L 1384.50 174.00 C1381.47,174.00 1379.00,173.60 1379.00,173.11 C1379.00,172.62 1381.45,170.26 1384.45,167.86 L 1389.91 163.50 L 1389.95 157.25 C1389.98,153.81 1389.84,151.00 1389.64,151.00 C1389.19,151.00 1384.35,154.95 1369.65,167.30 C1357.40,177.60 1356.01,179.87 1359.70,183.55 ZM 12.00 135.16 C12.00,139.47 12.35,143.00 12.78,143.00 C14.34,143.00 26.96,131.70 27.58,129.76 C27.99,128.45 27.51,127.06 26.15,125.71 C24.12,123.67 24.04,123.67 18.05,125.49 L 12.00 127.32 ZM 12.67 186.33 C13.98,187.65 23.56,187.00 25.78,185.44 C28.20,183.75 28.71,180.11 26.80,178.20 C26.10,177.50 22.76,177.00 18.80,177.00 L 12.00 177.00 L 12.00 181.33 C12.00,183.72 12.30,185.97 12.67,186.33 ZM 346.57 156.43 C348.95,158.80 352.25,157.99 353.85,154.64 C355.09,152.04 355.02,151.58 353.13,149.69 C351.41,147.97 350.55,147.77 348.27,148.57 C344.93,149.74 344.03,153.89 346.57,156.43 ZM 519.83 164.75 C521.98,166.49 523.40,166.32 525.43,164.08 C527.93,161.31 527.09,157.75 523.65,156.54 C521.20,155.68 520.52,155.87 518.95,157.82 C516.98,160.25 517.29,162.71 519.83,164.75 Z" fill="rgb(147,147,147)"/>
<path d="M 247.54 6.43 C249.03,4.90 250.62,3.64 252.24,2.77 L 256.50 0.50 L 248.00 0.20 C242.02,-0.00 239.65,-0.06 237.48,2.35 C239.14,0.06 239.88,0.00 248.82,0.01 L 258.50 0.02 L 253.31 2.43 C251.24,3.40 249.30,4.75 247.54,6.43 ZM 239.62 35.25 C238.96,33.49 238.50,31.63 238.23,29.69 C237.80,26.49 238.47,22.64 239.88,18.83 C239.73,19.26 239.59,19.70 239.46,20.14 C237.84,25.48 238.01,30.65 239.62,35.25 ZM 235.23 5.71 C234.51,7.00 233.70,8.57 232.72,10.50 C232.35,11.23 232.01,11.92 231.72,12.58 C232.61,10.30 233.77,8.04 235.23,5.71 ZM 229.21 24.63 C229.22,24.46 229.23,24.29 229.24,24.12 C229.23,24.29 229.22,24.46 229.21,24.63 C228.97,29.01 229.32,33.07 230.25,36.81 C229.32,33.07 228.97,29.01 229.21,24.63 Z" fill="rgb(193,193,193)"/>
<path d="M 571.20 0.00 L 572.69 0.00 L 574.60 2.10 C575.43,3.03 575.98,4.25 576.26,5.85 C575.85,5.08 575.19,4.27 574.20,3.22 ZM 574.86 15.92 C572.97,20.06 569.47,24.25 564.47,28.31 C569.15,24.51 572.79,20.12 574.86,15.92 Z" fill="rgb(224,224,222)"/>
<path d="M 424.00 221.75 C424.00,221.06 424.87,216.00 425.93,210.50 C433.34,172.03 430.16,133.42 416.27,93.00 C415.23,89.97 414.55,86.71 414.76,85.75 C415.23,83.63 419.70,82.33 421.90,83.67 C423.89,84.88 431.18,106.26 433.96,119.00 C441.11,151.85 440.86,192.61 433.33,221.25 C432.97,222.58 431.81,223.00 428.43,223.00 C425.55,223.00 424.00,222.56 424.00,221.75 ZM 189.26 209.24 C188.18,208.26 186.61,204.43 185.68,200.50 C183.81,192.54 177.03,164.40 171.12,140.00 C159.87,93.56 159.72,92.71 162.58,91.61 C163.45,91.27 165.21,91.00 166.48,91.00 C169.24,91.00 169.98,92.79 173.53,108.00 C174.87,113.78 177.80,125.93 180.02,135.00 C182.24,144.07 185.59,158.05 187.45,166.06 C189.31,174.07 192.27,186.34 194.03,193.32 C197.41,206.71 197.34,207.68 192.93,210.04 C191.68,210.70 190.63,210.47 189.26,209.24 ZM 241.49 201.75 C238.95,196.16 226.85,145.74 227.46,143.30 C227.92,141.47 228.73,141.00 231.40,141.00 C233.24,141.00 235.18,141.56 235.70,142.25 C236.22,142.94 238.55,151.38 240.87,161.00 C243.19,170.62 246.29,183.29 247.76,189.14 C249.98,198.00 250.23,200.21 249.23,202.39 C247.45,206.30 243.41,205.96 241.49,201.75 ZM 12.67 186.33 C12.30,185.97 12.00,183.72 12.00,181.33 L 12.00 177.00 L 18.80 177.00 C22.76,177.00 26.10,177.50 26.80,178.20 C28.71,180.11 28.20,183.75 25.78,185.44 C23.56,187.00 13.98,187.65 12.67,186.33 ZM 1359.70 183.55 C1356.01,179.87 1357.40,177.60 1369.65,167.30 C1384.35,154.95 1389.19,151.00 1389.64,151.00 C1389.84,151.00 1389.98,153.81 1389.95,157.25 L 1389.91 163.50 L 1384.45 167.86 C1381.45,170.26 1379.00,172.62 1379.00,173.11 C1379.00,173.60 1381.47,174.00 1384.50,174.00 L 1390.00 174.00 L 1390.00 179.00 L 1390.00 184.00 L 1382.25 184.01 C1377.99,184.01 1371.55,184.29 1367.95,184.63 C1362.56,185.14 1361.09,184.95 1359.70,183.55 ZM 900.43 171.13 C876.60,163.00 863.42,141.68 866.01,115.49 C866.44,111.10 866.62,107.32 866.41,107.09 C866.19,106.86 865.19,107.43 864.18,108.34 C861.56,110.71 859.31,110.40 857.35,107.41 C855.74,104.95 855.75,104.63 857.54,101.29 C859.94,96.83 867.76,89.90 875.50,85.35 C878.80,83.42 883.30,80.11 885.50,78.00 C892.44,71.35 905.77,65.49 916.46,64.39 C922.19,63.81 922.90,63.94 923.90,65.81 C925.66,69.10 923.74,72.70 919.81,73.45 C912.52,74.84 908.06,76.29 908.58,77.12 C908.87,77.61 910.40,78.00 911.97,78.00 C915.86,78.00 925.25,81.64 932.46,85.94 C939.85,90.36 947.96,100.12 951.63,109.00 C954.89,116.88 956.01,131.23 953.96,138.78 C950.96,149.87 942.63,161.12 932.89,167.22 C924.26,172.64 909.91,174.36 900.43,171.13 ZM 925.39 159.95 C931.32,156.99 939.47,148.43 942.25,142.25 C943.81,138.79 944.50,134.86 944.81,127.79 C945.21,118.64 945.06,117.72 942.20,111.61 C934.27,94.67 916.52,85.29 897.41,87.95 C887.83,89.28 886.64,89.97 882.45,96.52 C876.80,105.35 874.03,119.32 875.92,129.50 C878.80,145.10 888.85,156.89 903.29,161.61 C909.37,163.60 919.63,162.83 925.39,159.95 ZM 113.05 164.25 C112.48,162.19 112.01,157.57 112.01,153.99 C112.00,150.40 111.34,136.45 110.54,122.99 C109.74,109.52 108.59,90.40 108.00,80.50 C105.38,36.74 104.00,10.97 104.00,5.69 L 104.00 0.00 L 108.43 -0.00 L 112.86 -0.00 L 113.42 5.25 C113.73,8.14 114.65,22.65 115.45,37.50 C122.37,164.92 122.37,164.85 121.05,166.44 C120.34,167.30 118.48,168.00 116.92,168.00 C114.51,168.00 113.94,167.45 113.05,164.25 ZM 519.83 164.75 C517.29,162.71 516.98,160.25 518.95,157.82 C520.52,155.87 521.20,155.68 523.65,156.54 C527.09,157.75 527.93,161.31 525.43,164.08 C523.40,166.32 521.98,166.49 519.83,164.75 ZM 346.57 156.43 C344.03,153.89 344.93,149.74 348.27,148.57 C350.55,147.77 351.41,147.97 353.13,149.69 C355.02,151.58 355.09,152.04 353.85,154.64 C352.25,157.99 348.95,158.80 346.57,156.43 ZM 1319.20 156.80 C1315.88,153.48 1317.68,150.58 1335.64,130.36 C1353.19,110.59 1373.92,86.90 1379.35,80.41 C1381.69,77.60 1381.89,77.00 1380.46,77.00 C1378.39,77.00 1366.76,80.48 1334.72,90.68 C1311.75,97.99 1310.87,98.19 1308.97,96.47 C1305.28,93.13 1306.47,90.61 1317.75,77.84 C1363.23,26.34 1366.05,23.00 1364.04,23.00 C1362.90,23.00 1321.15,37.86 1307.80,43.02 C1298.46,46.63 1296.51,46.71 1294.45,43.57 C1293.21,41.67 1293.10,40.67 1293.96,39.07 C1294.57,37.93 1295.21,37.00 1295.39,37.00 C1295.56,37.00 1298.81,35.85 1302.60,34.45 C1316.05,29.47 1334.60,22.83 1341.58,20.50 C1345.47,19.20 1356.12,15.40 1365.24,12.07 C1383.61,5.34 1386.63,4.84 1387.90,8.25 C1389.06,11.38 1388.40,12.78 1383.03,18.50 C1368.81,33.66 1329.00,79.81 1329.00,81.13 C1329.00,81.69 1329.92,81.84 1331.07,81.48 C1332.21,81.11 1338.85,79.12 1345.82,77.05 C1352.80,74.98 1364.92,71.20 1372.77,68.65 C1380.62,66.09 1387.71,64.00 1388.52,64.00 C1389.73,64.00 1389.99,65.80 1389.96,73.75 L 1389.92 83.50 L 1377.46 97.50 C1364.52,112.04 1342.53,137.22 1340.11,140.29 C1337.07,144.12 1340.40,143.68 1360.50,137.57 C1366.55,135.73 1374.65,133.49 1378.50,132.60 C1382.35,131.70 1386.51,130.70 1387.75,130.37 C1389.86,129.80 1390.00,130.07 1390.00,134.75 L 1390.00 139.74 L 1385.25 141.00 C1382.64,141.69 1374.43,143.98 1367.00,146.08 C1359.57,148.18 1348.29,151.26 1341.93,152.91 C1335.57,154.56 1329.13,156.38 1327.62,156.96 C1323.98,158.34 1320.68,158.28 1319.20,156.80 ZM 12.00 135.16 L 12.00 127.32 L 18.05 125.49 C24.04,123.67 24.12,123.67 26.15,125.71 C27.51,127.06 27.99,128.45 27.58,129.76 C26.96,131.70 14.34,143.00 12.78,143.00 C12.35,143.00 12.00,139.47 12.00,135.16 ZM 748.38 113.46 C746.94,111.26 746.80,108.82 747.29,95.21 C747.61,86.57 748.59,75.25 749.47,70.05 C752.60,51.57 763.19,25.14 775.62,4.78 L 778.50 0.06 L 784.80 0.03 C789.60,0.01 790.91,0.30 790.30,1.25 C789.86,1.94 786.90,6.41 783.73,11.19 C772.97,27.37 765.40,45.08 760.29,66.00 C758.18,74.64 757.65,79.69 757.26,94.50 C756.88,108.82 756.47,112.86 755.24,114.25 C753.04,116.73 750.32,116.42 748.38,113.46 ZM 579.50 76.51 C571.14,74.67 565.52,72.03 558.24,66.54 C553.35,62.85 546.97,56.24 544.33,52.13 C544.20,51.93 540.19,52.54 535.41,53.49 C524.45,55.66 512.30,55.73 504.28,53.66 C489.16,49.76 476.10,39.61 469.59,26.70 C466.13,19.83 463.05,8.64 463.02,2.75 C463.00,0.13 463.22,0.00 467.86,0.00 L 472.71 0.00 L 473.32 6.48 C475.52,30.03 497.41,47.48 522.50,45.68 C531.60,45.02 538.51,42.96 538.49,40.90 C538.48,40.13 537.83,36.18 537.05,32.13 C535.30,23.03 536.49,14.57 540.67,6.17 L 543.50 0.50 L 550.93 0.20 L 558.36 -0.09 L 553.76 4.83 C548.57,10.38 546.00,17.21 546.01,25.43 C546.01,30.33 547.58,38.00 548.58,38.00 C550.26,38.00 559.42,32.41 564.47,28.31 C572.33,21.93 576.50,15.21 576.50,8.93 C576.50,5.69 575.90,3.55 574.60,2.10 L 572.69 0.00 L 578.83 0.00 C584.68,-0.00 584.99,0.12 585.66,2.75 C587.08,8.29 586.40,14.47 583.74,20.27 C580.57,27.18 570.45,37.28 561.76,42.20 C551.43,48.06 551.65,47.08 559.13,54.28 C570.91,65.63 584.55,69.99 602.02,68.00 C621.44,65.78 636.85,57.33 655.56,38.63 C661.68,32.51 668.98,24.35 671.78,20.50 C678.74,10.92 679.66,10.00 682.30,10.00 C685.12,10.00 687.00,11.75 687.00,14.36 C687.00,19.91 658.64,51.49 645.00,61.13 C624.83,75.39 600.38,81.13 579.50,76.51 ZM 1142.50 71.67 C1130.20,68.52 1117.48,58.81 1111.68,48.15 C1106.19,38.07 1103.56,20.93 1105.92,10.74 C1106.43,8.56 1106.42,6.76 1105.90,6.44 C1105.40,6.13 1105.00,6.34 1105.00,6.91 C1105.00,8.54 1101.11,10.17 1098.90,9.47 C1096.26,8.63 1094.99,5.11 1096.30,2.25 C1097.27,0.11 1097.87,0.00 1108.62,0.00 L 1119.93 0.00 L 1117.75 4.75 C1115.89,8.81 1115.58,11.25 1115.61,21.50 C1115.64,34.62 1116.71,38.35 1123.03,47.54 C1128.71,55.79 1142.21,63.00 1152.00,63.00 C1160.93,63.00 1166.84,60.40 1173.61,53.50 C1181.92,45.03 1184.45,38.73 1184.48,26.50 C1184.50,17.10 1182.89,12.10 1176.97,3.25 L 1174.80 0.00 L 1180.84 0.00 L 1186.87 0.00 L 1190.00 6.35 C1198.59,23.81 1195.46,44.11 1181.81,59.43 C1172.31,70.09 1156.05,75.15 1142.50,71.67 ZM 254.00 61.01 C236.77,54.64 228.24,42.13 229.21,24.63 C229.57,18.10 230.26,15.32 232.72,10.50 C238.10,-0.06 238.22,-0.14 248.00,0.20 L 256.50 0.50 L 252.24 2.77 C244.24,7.05 237.04,20.87 238.23,29.69 C240.09,43.47 252.30,53.00 268.10,53.00 C290.32,53.00 304.03,27.62 293.40,6.17 L 290.34 0.00 L 295.96 0.00 C301.48,-0.00 301.61,0.07 303.31,3.75 C310.52,19.37 306.35,40.91 293.88,52.45 C286.38,59.39 279.36,62.16 268.00,62.67 C261.25,62.97 258.37,62.63 254.00,61.01 Z" fill="rgb(251,251,250)"/>
</g>
</svg>